<svg id="Layer_2" data-name="Layer 2" xmlns="http://www.w3.org/2000/svg" viewBox="0 0 170.88 186.14"><defs><style>.cls-1{fill:#b21f29;}.cls-2{fill:#231f20;}.cls-3{fill:#fff;}</style></defs><title>nica-logo-cute</title><path class="cls-1" d="M21.4,91.37,17.22,124.9c-.42,3.37-.83,6.88.29,10.09s3.49,5.53,5.9,7.76c37.17,34.4,90.73,42.87,140.89,49.8a10,10,0,0,0,5.12-.19c3.4-1.37,4.18-5.76,4.43-9.42a723.66,723.66,0,0,0,.26-96.34c-.5-7.86-1.18-15.88-4.4-23.06-8.32-18.56-30.56-26-50.63-29.29C91.7,29.72,60.83,30,39.65,47.91,19.14,65.26,13.45,94.09,9.56,120.67" transform="translate(-5.9 -8.53)"/><path class="cls-1" d="M20.24,90.92c-1.5,12-3.42,24-4.47,36.07-.82,9.41,3.8,14.65,10.61,20.5,13.91,12,30.26,20.76,47.37,27.2,18,6.78,36.88,11.05,55.81,14.38,9.47,1.67,19,3.09,28.5,4.43,3.88.54,9.18,2.31,12.76.05,2.35-1.49,3.32-4.44,3.81-7,2-10.63,1.55-22.3,1.86-33.09q.51-17.72.14-35.42c-.24-11.69-.64-23.42-1.58-35.09-.73-9.14-2.29-18.29-7.5-26.05-9.17-13.63-25.89-19.8-41.29-23.09C108.54,30,89.59,28.37,71.68,31.66c-19.5,3.59-36.2,14-46.47,31.18S11.29,100.57,8.4,120.21c-.29,1.93,2,3.31,2.33.92,4.79-32.58,13.23-69,47.48-82.08,15.85-6,33.45-6.29,50.12-4.47,15.31,1.68,31.59,4.69,44.85,13,6.87,4.29,12.71,10.2,15.87,17.75,4.16,10,3.95,21.5,4.47,32.11q1.54,31.45.35,62.95-.28,7.37-.71,14.74c-.23,4,.65,13.39-4.1,15.5-3.61,1.59-10.42-.67-14.25-1.21-4.22-.61-8.44-1.23-12.66-1.89-17.3-2.69-34.56-6-51.37-10.88-18.38-5.39-36.32-12.83-52.14-23.74-8.1-5.6-21-13.52-20.56-24.39.51-12.18,3-24.58,4.49-36.68.24-1.92-2-3.31-2.33-.91Z" transform="translate(-5.9 -8.53)"/><path class="cls-1" d="M13.49,94.32c-2,7-1.29,13.91-.19,21,1.4,9.11,2.87,18.2,4.3,27.3.38,2.39,2.58.89,2.28-1L16.46,119.9c-1.24-7.85-3.05-16-.86-23.79.44-1.59-1.48-4.08-2.11-1.79Z" transform="translate(-5.9 -8.53)"/><path class="cls-2" d="M28,56.7A35.59,35.59,0,0,1,7.06,44.2L17.23,46a2.62,2.62,0,0,0,2.15-.25c.72-.6.58-1.72.37-2.64Q17.31,32.3,13.85,21.8L25.94,33.53c1.53,1.49,3.56,3.1,5.57,2.38,1.75-.63,2.45-2.69,2.91-4.49q2.76-10.56,5.5-21.12L47.1,23.73c1.06,2,2.56,4.22,4.8,4.17,4.61-.11,3.77-8.57,8-10.36a38.12,38.12,0,0,1,2.46,17.34" transform="translate(-5.9 -8.53)"/><path class="cls-2" d="M28.25,54.94a36,36,0,0,1-20.38-12L7.1,46c3.92.68,13.66,4.82,14-1.78.16-3.36-1.55-7.39-2.41-10.61-1.16-4.29-2.45-8.54-3.82-12.77l-1.58,2.53c3.81,3.69,7.57,7.44,11.42,11.08,2.19,2.06,5.2,4.76,8.24,2.55,2.46-1.78,2.85-5.91,3.54-8.55L41,11.19l-2.07.05c2.39,4.47,4.66,9,7.18,13.43,1.2,2.09,2.6,4.59,5.23,4.94,5.84.78,5.12-8.16,9-10.32l-1.37-.8a37.87,37.87,0,0,1,2.3,15.93c-.13,1.9,2.17,3.33,2.33.91A44.55,44.55,0,0,0,60.93,16.6c-.18-.48-.8-1.13-1.37-.81-3.11,1.75-3.56,4.86-5.05,7.82-2.82,5.6-6.49-1-8.19-4.19-1.81-3.35-3.59-6.71-5.39-10.07-.5-.94-1.72-1.26-2.06.05l-3,11.52c-.78,3-1.15,7.49-2.66,10.16-3.4,6-8.3-.68-10.74-3l-8.06-7.82C13,18.86,12.59,22,12.84,22.75c1.85,5.69,3.51,11.44,4.93,17.25.76,3.14,1.26,4.11-2.28,3.85-2.81-.21-5.7-1-8.47-1.47-1.34-.23-1.31,2.49-.77,3.13a38,38,0,0,0,21.45,13c1.75.37,2-3.22.55-3.53Z" transform="translate(-5.9 -8.53)"/><path class="cls-2" d="M33.33,98A17,17,0,0,0,36,107.17a1,1,0,0,0,1.69,0,2.51,2.51,0,0,0-.07-2.58,12.2,12.2,0,0,1-1.86-6.65c0-2.25-2.37-2.18-2.39.06Z" transform="translate(-5.9 -8.53)"/><path class="cls-2" d="M48.19,128.18l12,8c1.65,1.1,2.38-2.34,1.13-3.17l-12-8c-1.65-1.1-2.38,2.34-1.13,3.17Z" transform="translate(-5.9 -8.53)"/><path class="cls-2" d="M85.33,156.81,91.58,163c.63.62,1.38-.08,1.62-.69a2.41,2.41,0,0,0-.49-2.48l-6.25-6.16c-.63-.62-1.39.08-1.62.69a2.37,2.37,0,0,0,.49,2.48Z" transform="translate(-5.9 -8.53)"/><path class="cls-2" d="M145.3,184.37a11.24,11.24,0,0,0,6.18,2.3c1.58.1,1.55-3.54-.08-3.64a9.15,9.15,0,0,1-5-1.83c-1.57-1.18-2.33,2.27-1.13,3.17Z" transform="translate(-5.9 -8.53)"/><path class="cls-2" d="M170.75,179.11a15.31,15.31,0,0,1-5.84-13.48c.19-1.91-2.09-3.32-2.33-.91a19.76,19.76,0,0,0,7,17.56c1.51,1.24,2.29-2.22,1.13-3.17Z" transform="translate(-5.9 -8.53)"/><path class="cls-2" d="M168.83,135.9l-.89-5c-.12-.69-.71-1.54-1.5-1.24s-.91,1.57-.78,2.27l.89,5c.12.69.71,1.54,1.5,1.23s.91-1.56.78-2.26Z" transform="translate(-5.9 -8.53)"/><path class="cls-2" d="M157,91.94a55.5,55.5,0,0,0-8.87-17.31c-1.33-1.76-2.55,1.39-1.62,2.62A53.3,53.3,0,0,1,155,93.82c.7,2.27,2.5-.32,2-1.88Z" transform="translate(-5.9 -8.53)"/><path class="cls-2" d="M102.05,55.19A37.5,37.5,0,0,0,90.79,51.9c-1.53-.2-1.54,3.43.09,3.64a35.22,35.22,0,0,1,10.62,3.18c1.54.73,1.94-2.86.55-3.53Z" transform="translate(-5.9 -8.53)"/><path class="cls-2" d="M45.13,60.08a25.31,25.31,0,0,0,4.33,11.47c1.24,1.81,2.49-1.35,1.63-2.61a21.42,21.42,0,0,1-3.67-9.89c-.09-.72-.73-1.5-1.51-1.23s-.86,1.57-.78,2.26Z" transform="translate(-5.9 -8.53)"/><path class="cls-2" d="M75.5,90.94,77.64,103c.42,2.37,2.62.88,2.28-1l-2.14-12c-.42-2.38-2.62-.89-2.28,1Z" transform="translate(-5.9 -8.53)"/><path class="cls-2" d="M103.26,133.72l10.82,8.44c1.55,1.21,2.32-2.25,1.13-3.17l-10.82-8.44c-1.54-1.21-2.31,2.25-1.13,3.17Z" transform="translate(-5.9 -8.53)"/><path class="cls-2" d="M149.82,145.5l-2.32-13.06c-.43-2.38-2.63-.88-2.29,1l2.32,13.05c.43,2.38,2.63.89,2.29-1Z" transform="translate(-5.9 -8.53)"/><path class="cls-2" d="M118.37,91.48a17.14,17.14,0,0,0-2.62-9.22,1,1,0,0,0-1.7,0,2.52,2.52,0,0,0,.07,2.58A12.13,12.13,0,0,1,116,91.53c0,2.25,2.38,2.18,2.4,0Z" transform="translate(-5.9 -8.53)"/><path class="cls-2" d="M120.5,45.82A11.81,11.81,0,0,0,111.82,42c-1.61,0-1.54,3.63.09,3.64A10,10,0,0,1,119.37,49c.6.66,1.4-.12,1.62-.7a2.42,2.42,0,0,0-.49-2.48Z" transform="translate(-5.9 -8.53)"/><path class="cls-2" d="M61.29,110.58c2-.41,2.55-2.53,2.26-4.33-.23-1.45-1.28-3.29-3-3-.86.13-1.17,1.09-1.15,1.85,0,.6.39,1.92,1.24,1.8,0,0,.52,0,.31,0l.21.08c-.12-.07-.12-.06,0,0h0c.1.15.1.14,0,0a2.44,2.44,0,0,1,.1.24c0-.2-.07-.24,0-.11a1.29,1.29,0,0,1,0,.19c0-.26,0-.29,0-.09,0-.26,0-.3,0-.09.07-.23.07-.26,0-.08.08-.16.12-.13,0-.07.26-.18-.27.09-.08.05a1.68,1.68,0,0,0-1.15,1.85c0,.55.4,2,1.24,1.8Z" transform="translate(-5.9 -8.53)"/><path class="cls-3" d="M117,70.08c-.41,2.33,3.92,3,4.66.74s-2-4.52-4.28-4a3.8,3.8,0,0,0-2.81,4.51c.58,1.9,3.36,2.78,4.75,1.36,1.63-1.65-.3-5-2.58-4.57s-3.12,3.87-1.4,5.43,4.88.67,5.74-1.48a4.45,4.45,0,0,0-2.75-5.57c-2.09.62-2.14,4.2-.1,5s4.41-1.65,3.69-3.72-3.88-2.61-5.36-1a3.73,3.73,0,0,0,1.08,5.56,4.19,4.19,0,0,0,5.48-2" transform="translate(-5.9 -8.53)"/><path class="cls-2" d="M115.81,69.62c-.16,1.88.55,3.69,2.49,4.25A3.5,3.5,0,0,0,122.57,72c1.91-4.42-3.61-9.31-7.45-5.86a5.81,5.81,0,0,0-1.44,6.52,4.23,4.23,0,0,0,5,2.38c4.14-1.44,2.5-9-1.83-8.74s-4.75,7.33-1.5,9.28a4.72,4.72,0,0,0,5.69-.92,6.06,6.06,0,0,0,1-6.23c-.58-1.56-2.63-4.49-4.59-3.46-1.7.9-2.21,3.25-1.9,5,.34,1.92,1.74,3.75,3.89,3.47s3.73-2.7,3.73-4.84a4.47,4.47,0,0,0-4.14-4.56,4.38,4.38,0,0,0-4.51,4.08c-.31,2.38.76,5.27,3.17,6.15A5.24,5.24,0,0,0,124,71.57a2.52,2.52,0,0,0-.06-2.57,1,1,0,0,0-1.7,0c-.87,1.68-4.2,3-5.18.58-.82-2,3.09-2.71,3.7-1.17.34.87-1.55,1.63-2.25,1.3-.43-.2-.86-.77-.37-1.17s1.69,1,1.88,1.54c.37,1.11-.48,1.88-1.47,2.24-1.39.49-4.33-.7-2.26-2.13a1.57,1.57,0,0,1,2.28.57c.28.8-.85.91-1.62.72-1.24-.31-1.63-1.14-.69-2.1a2.65,2.65,0,0,1,3.25-.45c.73.4,1.55,1,.41,1.35a2.07,2.07,0,0,1-1.05,0c-.71-.17-.63-.64-.71.19.07-.73,0-1.93-.89-2.22s-1.38.62-1.44,1.31Z" transform="translate(-5.9 -8.53)"/><path class="cls-3" d="M57.16,106.59a6.11,6.11,0,0,0,4.49,7.78,6.37,6.37,0,0,0,7.11-5.67,6.66,6.66,0,0,0-6.23-6.77,5.55,5.55,0,0,0-5.11,2.82,4.15,4.15,0,0,0,1.49,5.37c1.68-1.3,3.55-3.46,2.42-5.27-.91-1.46-3.38-1.21-4.33.23a4.14,4.14,0,0,0,.59,4.77c2.87,3.41,9.63,1.16,9.89-3.29a5.25,5.25,0,0,0-6.25,1c.23.81,1.55.71,2,0a3.33,3.33,0,0,0,.1-2.45,1.94,1.94,0,0,0-2.57.6" transform="translate(-5.9 -8.53)"/><path class="cls-2" d="M56.1,105.69c-1.29,4.23.79,9.76,5.6,10.5,5,.76,8.84-4.39,8.16-9s-5.67-8.59-10.36-6.44c-4.2,1.92-5.13,8.31-1.16,11a.89.89,0,0,0,1.21,0c2.38-2,5.38-6.85,1.54-9.15-3.64-2.17-6.22,2.37-5.69,5.49,1.33,7.83,12.4,6.17,13.24-1a2.12,2.12,0,0,0-.89-2.22A6.27,6.27,0,0,0,60.59,106a2.4,2.4,0,0,0-.17,2.87c1.77,2.63,4.19-.05,4.27-2.29,0-1.12-.06-2.59-1.08-3.24a2.79,2.79,0,0,0-3.49.81c-1,1.1,0,4.54,1.29,3.11a1.12,1.12,0,0,1,1.65-.39l-.87-1.26-.14.64-.18,2.87a4.5,4.5,0,0,1,5.33-.83l-.89-2.22c-.29,2.46-3.15,3.79-5.41,3.55-1.39-.14-3.33-1-3-2.73.2-1,1.18-1.81,1.89-.72S59,108,58.26,108.57l1.21,0c-3-2,.31-4.72,2.77-4.78s5.47,2,5.26,4.74c-.48,6-11.06,4.77-9.29-1,.49-1.59-1.41-4.06-2.11-1.79Z" transform="translate(-5.9 -8.53)"/><path class="cls-2" d="M91.74,110.72c4.57,5,12.55,6.24,18.08,2,5.27-4,6.66-11.25,4.53-17.26-.8-2.25-2.58.32-2,1.89,4.31,12.15-11.72,18.55-19.46,10.16-1.28-1.38-2.13,2.1-1.13,3.18Z" transform="translate(-5.9 -8.53)"/><path class="cls-2" d="M137.7,157a12.73,12.73,0,0,0,5.79,9.9c1.69,1,2.4-2.39,1.13-3.18a9.08,9.08,0,0,1-4.53-6.78c-.06-.69-.35-1.82-1.24-1.79s-1.21,1.18-1.15,1.85Z" transform="translate(-5.9 -8.53)"/></svg>