<svg id="Layer_1" data-name="Layer 1" xmlns="http://www.w3.org/2000/svg" viewBox="0 0 12 15.6"><defs><style>.cls-1{fill:#b21f29;}.cls-2{fill:#231f20;}.cls-3{fill:#fff;}</style></defs><title>favicon</title><path class="cls-1" d="M3.73,4.9l-1.21,2a1.63,1.63,0,0,0-.26.66,1.4,1.4,0,0,0,.16.66c1.43,3.26,4.64,5.31,7.68,7.16a.68.68,0,0,0,.33.13c.26,0,.43-.25.55-.48a51.77,51.77,0,0,0,2.72-6.2,4.71,4.71,0,0,0,.36-1.61c0-1.42-1.24-2.52-2.44-3.3C10,2.9,8,2.05,6.12,2.61s-3,2.24-4,3.84" transform="translate(-2.06 -0.07)"/><path class="cls-1" d="M3.67,4.81C3,6,2,7,2.35,8.32c.41,1.59,2.07,3.14,3.27,4.16.89.76,3.56,3.25,4.8,3.2,1,0,1.55-2.38,1.9-3.16,1.57-3.49,3-6.25-.67-8.68C7.56,1.16,4.5,2.56,2.09,6.37c-.06.09,0,.3.12.17C3.87,3.93,6,1.8,9.34,2.93a7.77,7.77,0,0,1,3.4,2c.83,1.16.85,3.47.55,4.76A14.06,14.06,0,0,1,12.37,12a9.16,9.16,0,0,1-1.23,2.6c-.59.55-1.13.51-2,.15A12.94,12.94,0,0,1,6.6,13c-2.68-2-4.81-4.59-2.81-8,.06-.09,0-.31-.12-.18Z" transform="translate(-2.06 -0.07)"/><path class="cls-1" d="M3.12,4.87A8.88,8.88,0,0,0,2.06,8c0,.11.11.29.15.13A9,9,0,0,1,3.24,5c.07-.08,0-.3-.12-.17Z" transform="translate(-2.06 -0.07)"/><path class="cls-2" d="M5.13,2.85a2.43,2.43,0,0,1-1-1.39l.6.4s.1.06.15,0S5,1.81,5,1.74c.09-.5.17-1,.21-1.53L5.64,1.3c.06.14.15.3.3.31s.23-.1.31-.2L7.2.2l.08,1.07c0,.15,0,.34.19.4.3.12.49-.45.81-.44A2.71,2.71,0,0,1,8,2.41" transform="translate(-2.06 -0.07)"/><path class="cls-2" d="M5.17,2.74a2.66,2.66,0,0,1-1-1.34l-.11.17c.24.16.62.58.9.38.08-.06.13-.49.13-.48,0-.2,0-.41.09-.61S5.12.51,5.29.69s.21,1,.66,1.05S7,.59,7.26.29L7.11.2c0,.36-.07,1.19.21,1.48s.65-.24,1-.33L8.2,1.19a3.17,3.17,0,0,1-.31,1.13c0,.1.06.32.12.18a3.39,3.39,0,0,0,.35-1.24c0-.07,0-.18-.11-.16s-.3.26-.43.28C7.23,1.51,7.3.47,7.28.2,7.27.12,7.2,0,7.13.11s-.5.84-.75,1C5.57,1.45,5.45.6,5.27.14c0-.09-.15-.06-.16,0A3.78,3.78,0,0,1,5,1.25c-.23.49-.45.34-.81.1-.11-.07-.13.11-.11.18A2.9,2.9,0,0,0,5.09,3c.11.09.16-.16.08-.22Z" transform="translate(-2.06 -0.07)"/><path class="cls-2" d="M4.32,5.63a1.39,1.39,0,0,0-.09.64c0,.15.18.15.17,0a.83.83,0,0,1,.07-.51c0-.11-.09-.28-.15-.12Z" transform="translate(-2.06 -0.07)"/><path class="cls-2" d="M4.45,8,5,8.88c.08.13.17-.1.11-.19l-.55-.85c-.08-.13-.17.1-.11.19Z" transform="translate(-2.06 -0.07)"/><path class="cls-2" d="M6,10.88l.23.58c.07.15.19,0,.15-.14l-.23-.57c-.07-.15-.19,0-.15.13Z" transform="translate(-2.06 -0.07)"/><path class="cls-2" d="M9.13,14.36a.87.87,0,0,0,.32.31c.11.08.16-.16.07-.22a.66.66,0,0,1-.28-.27c-.09-.13-.17.1-.11.18Z" transform="translate(-2.06 -0.07)"/><path class="cls-2" d="M10.88,14.75a1.18,1.18,0,0,1,0-1c0-.09-.05-.31-.12-.18a1.44,1.44,0,0,0,0,1.34c.07.15.19,0,.14-.14Z" transform="translate(-2.06 -0.07)"/><path class="cls-2" d="M12,11.93l.08-.35c0-.13-.12-.22-.16-.06l-.08.35c0,.13.12.22.16.06Z" transform="translate(-2.06 -0.07)"/><path class="cls-2" d="M12.44,8.8a4.12,4.12,0,0,0-.09-1.4c0-.17-.19-.06-.16.07a3.62,3.62,0,0,1,.08,1.27c0,.13.15.23.17.06Z" transform="translate(-2.06 -0.07)"/><path class="cls-2" d="M9.91,4.82a3.3,3.3,0,0,0-.61-.51c-.12-.07-.17.17-.08.22a2.76,2.76,0,0,1,.61.52c.09.1.15-.15.08-.23Z" transform="translate(-2.06 -0.07)"/><path class="cls-2" d="M6.15,3.49a2.09,2.09,0,0,0-.05.9c0,.16.18.06.16-.08a1.39,1.39,0,0,1,0-.7c0-.11-.11-.28-.15-.12Z" transform="translate(-2.06 -0.07)"/><path class="cls-2" d="M7.23,6.36,7,7.19c0,.14.13.23.17.07l.2-.84c0-.14-.13-.23-.17-.06Z" transform="translate(-2.06 -0.07)"/><path class="cls-2" d="M7.84,9.93l.46.84c.07.14.16-.09.11-.18L8,9.74c-.07-.13-.16.09-.11.19Z" transform="translate(-2.06 -0.07)"/><path class="cls-2" d="M10.48,12l.21-.91c0-.13-.12-.23-.16-.06l-.22.9c0,.14.13.23.17.07Z" transform="translate(-2.06 -0.07)"/><path class="cls-2" d="M10,7.65A1.34,1.34,0,0,0,10.06,7c0-.16-.19-.16-.17,0a.83.83,0,0,1-.07.51c0,.11.09.28.15.12Z" transform="translate(-2.06 -0.07)"/><path class="cls-2" d="M11.38,4.76a.94.94,0,0,0-.47-.51c-.11-.06-.14.2,0,.25a.64.64,0,0,1,.37.4c.06.15.18,0,.14-.14Z" transform="translate(-2.06 -0.07)"/><path class="cls-2" d="M5.81,7.26a.27.27,0,0,0,.1-.49c-.11-.08-.16.16-.08.22l0,0c-.12,0-.11.27,0,.25Z" transform="translate(-2.06 -0.07)"/><path class="cls-3" d="M10.48,6.21c-.09.14.17.3.28.18A.25.25,0,0,0,10.6,6a.27.27,0,0,0-.31.21.21.21,0,0,0,.27.22.2.2,0,0,0,0-.36.23.23,0,0,0-.24.31.26.26,0,0,0,.41.06.31.31,0,0,0,0-.43.19.19,0,0,0-.15.31.21.21,0,0,0,.34-.13A.24.24,0,0,0,10.55,6a.26.26,0,0,0-.09.39.29.29,0,0,0,.41,0" transform="translate(-2.06 -0.07)"/><path class="cls-2" d="M10.4,6.17c-.12.61.81.34.4-.16-.54-.66-.83.81-.22.56s-.34-1.07-.4-.3a.34.34,0,0,0,.45.36c.3-.12.24-.5.09-.71,0,0,0,0-.06,0a.34.34,0,0,0-.18.56c.24.2.5-.1.45-.34a.3.3,0,0,0-.59,0,.37.37,0,0,0,.55.43c.1-.06.06-.31-.05-.25-.31.21-.4.2-.28,0s-.13-.23-.16-.07Z" transform="translate(-2.06 -0.07)"/><path class="cls-3" d="M5.61,6.88a.43.43,0,0,0,.07.63.45.45,0,0,0,.62-.17.47.47,0,0,0-.22-.61.38.38,0,0,0-.4,0,.29.29,0,0,0-.06.39c.15,0,.33-.13.3-.27a.18.18,0,0,0-.28-.11.3.3,0,0,0-.1.32.42.42,0,0,0,.73.07.35.35,0,0,0-.43-.11c0,.06.08.09.13.06A.3.3,0,0,0,6.05,7a.14.14,0,0,0-.19,0" transform="translate(-2.06 -0.07)"/><path class="cls-2" d="M5.55,6.79c-.52.75.7,1.3.86.47a.57.57,0,0,0-.47-.69.43.43,0,0,0-.39.65s0,.08.1.06c.71-.24.11-.92-.15-.5s.49,1,.83.48a.16.16,0,0,0,0-.2.45.45,0,0,0-.49-.12c-.08,0-.07.16,0,.21s.29.06.34-.13,0-.14,0-.17-.1-.08-.23,0-.1.28,0,.26H6L6,6.9,5.9,7l0,.21.36.1,0-.2-.27.15c-.14,0-.21,0-.21-.13s0-.14.07.12.13.3-.13-.25c.06-.09,0-.3-.12-.18Z" transform="translate(-2.06 -0.07)"/><path class="cls-2" d="M7.73,8.1a1,1,0,0,0,1.86-.27c0-.13-.14-.23-.16-.06A.8.8,0,0,1,7.87,8c-.06-.15-.18,0-.14.14Z" transform="translate(-2.06 -0.07)"/><path class="cls-2" d="M9.38,12.38a1,1,0,0,0,.12.81c.08.13.17-.09.11-.18l-.07-.56c0-.14-.12-.23-.16-.07Z" transform="translate(-2.06 -0.07)"/></svg>