<svg id="Layer_1" data-name="Layer 1" xmlns="http://www.w3.org/2000/svg" viewBox="0 0 36.01 46.53"><defs><style>.cls-1{fill:#b21f29;}.cls-2{fill:#231f20;}.cls-3{fill:#fff;}</style></defs><title>favicon-48</title><path class="cls-1" d="M11.7,15,8.09,21.08a4.62,4.62,0,0,0-.78,2,4.22,4.22,0,0,0,.48,2c4.26,9.71,13.84,15.81,22.89,21.33a2.12,2.12,0,0,0,1,.4c.77,0,1.28-.76,1.64-1.44a153.27,153.27,0,0,0,8.1-18.48A13.83,13.83,0,0,0,42.5,22c0-4.26-3.7-7.54-7.28-9.86C30.35,9,24.4,6.5,18.83,8.17,13.45,9.79,9.94,14.85,7,19.62" transform="translate(-6.71 -0.6)"/><path class="cls-1" d="M11.51,14.72C9.58,18,6.2,21.29,7.58,25.22c1.7,4.85,5.91,9.12,9.74,12.37a81.07,81.07,0,0,0,8.05,5.86c1.43.92,4.53,3.84,6.25,3.67,3.15-.33,5.57-9.08,6.64-11.57C40.19,31.07,43.83,25,42.4,19.89c-1.14-4.09-5-6.87-8.47-8.92C29.05,8.09,23,5.9,17.45,8.27,12.59,10.36,9.5,15.06,6.79,19.36c-.17.27.12.92.37.53C12.42,11.53,19,5.27,29.49,9.53c3.9,1.58,8.54,4.12,11,7.68,3.75,5.51-.37,12.71-2.63,18q-1.62,3.77-3.44,7.42c-1.52,3.06-2.94,3.29-6.18,1.84-3.09-1.39-6.2-4-8.87-6.07a42,42,0,0,1-8.4-8.44c-1.87-2.61-3.74-5.14-2.65-8.58.64-2,2.51-4.24,3.6-6.09.16-.27-.13-.92-.37-.53Z" transform="translate(-6.71 -0.6)"/><path class="cls-1" d="M9.87,14.89c-2,2.56-2.35,6.38-3.15,9.44-.08.33.32.85.45.37.77-3,1.17-6.81,3.07-9.28.2-.26-.08-.9-.37-.53Z" transform="translate(-6.71 -0.6)"/><path class="cls-2" d="M15.86,8.88a7.5,7.5,0,0,1-3-4.15l1.81,1.19a.51.51,0,0,0,.43.13c.19,0,.26-.28.3-.47.28-1.52.5-3.05.64-4.58L17.4,4.26c.17.42.43.89.87.92s.7-.31.94-.61L22,1l.25,3.18c0,.46.14,1,.58,1.2C23.75,5.71,24.3,4,25.26,4a7.83,7.83,0,0,1-1,3.53" transform="translate(-6.71 -0.6)"/><path class="cls-2" d="M16,8.55a7.87,7.87,0,0,1-2.87-4l-.33.53c.72.47,1.84,1.72,2.69,1.12.24-.17.37-1.47.36-1.43.11-.6.14-1.24.28-1.83.19-.8-.25-1,.25-.51s.61,3.13,2,3.14,3.19-3.44,3.89-4.33L21.78,1c.08,1.07-.22,3.56.62,4.43,1.07,1.08,2-.74,2.94-1L25,3.93A9.06,9.06,0,0,1,24.1,7.3c-.14.28.17.94.37.53a10,10,0,0,0,1-3.7c0-.2-.05-.54-.31-.47-.49.13-.92.76-1.29.84-1.76.37-1.56-2.72-1.62-3.54,0-.24-.23-.53-.44-.26-.53.68-1.49,2.52-2.25,2.88C17.19,4.71,16.82,2.15,16.27.8c-.12-.29-.43-.18-.45.1a11.78,11.78,0,0,1-.41,3.21c-.67,1.47-1.34,1-2.41.29-.32-.21-.39.33-.33.53a8.54,8.54,0,0,0,3.07,4.28c.32.25.48-.47.23-.66Z" transform="translate(-6.71 -0.6)"/><path class="cls-2" d="M13.45,17.16a3.61,3.61,0,0,0-.25,2c.07.5.53.18.48-.21a2.57,2.57,0,0,1,.21-1.42c.14-.33-.24-.83-.44-.37Z" transform="translate(-6.71 -0.6)"/><path class="cls-2" d="M13.84,24.31l1.63,2.54c.25.38.52-.28.34-.55l-1.63-2.54c-.25-.38-.52.28-.34.55Z" transform="translate(-6.71 -0.6)"/><path class="cls-2" d="M18.53,32.83l.69,1.71c.18.46.55-.07.42-.4L19,32.44c-.19-.46-.56.07-.43.39Z" transform="translate(-6.71 -0.6)"/><path class="cls-2" d="M27.79,43.21a2.52,2.52,0,0,0,1,1c.31.17.4-.59.11-.74a1.87,1.87,0,0,1-.78-.77c-.23-.39-.5.28-.34.55Z" transform="translate(-6.71 -0.6)"/><path class="cls-2" d="M33,44.37a3.15,3.15,0,0,1,0-3c.15-.28-.15-.93-.37-.53a4.19,4.19,0,0,0-.09,4c.23.44.59-.08.42-.4Z" transform="translate(-6.71 -0.6)"/><path class="cls-2" d="M36.27,36l.24-1c.1-.41-.37-.68-.48-.2l-.25,1c-.1.4.37.68.49.19Z" transform="translate(-6.71 -0.6)"/><path class="cls-2" d="M37.66,26.62a12,12,0,0,0-.25-4.18c-.12-.49-.58-.19-.48.21a10.93,10.93,0,0,1,.24,3.78c0,.4.44.69.49.19Z" transform="translate(-6.71 -0.6)"/><path class="cls-2" d="M30.17,14.82a8,8,0,0,0-1.94-1.63c-.29-.18-.39.57-.11.74a7.15,7.15,0,0,1,1.71,1.44c.31.35.56-.3.34-.55Z" transform="translate(-6.71 -0.6)"/><path class="cls-2" d="M18.91,10.77a5.41,5.41,0,0,0-.14,2.68c.09.5.55.19.47-.21a4.35,4.35,0,0,1,.11-2.09c.1-.34-.3-.86-.44-.38Z" transform="translate(-6.71 -0.6)"/><path class="cls-2" d="M22.14,19.33l-.6,2.49c-.09.4.37.68.49.19l.6-2.49c.09-.4-.38-.68-.49-.19Z" transform="translate(-6.71 -0.6)"/><path class="cls-2" d="M24,30l1.37,2.52c.09.16.26.11.35,0a.52.52,0,0,0,0-.54l-1.37-2.52c-.09-.16-.27-.11-.36,0A.53.53,0,0,0,24,30Z" transform="translate(-6.71 -0.6)"/><path class="cls-2" d="M31.81,36.21l.65-2.7c.09-.4-.37-.68-.49-.19L31.33,36c-.1.4.37.68.48.19Z" transform="translate(-6.71 -0.6)"/><path class="cls-2" d="M30.29,23.2a3.71,3.71,0,0,0,.26-2c-.07-.5-.54-.19-.48.21a2.57,2.57,0,0,1-.22,1.42c-.14.33.25.83.44.37Z" transform="translate(-6.71 -0.6)"/><path class="cls-2" d="M34.5,14.58A2.66,2.66,0,0,0,33.1,13c-.33-.15-.41.61-.12.74a2,2,0,0,1,1.1,1.2c.16.47.54-.07.42-.4Z" transform="translate(-6.71 -0.6)"/><path class="cls-2" d="M17.9,22c.76.08.88-1.28.24-1.52-.34-.13-.42.62-.12.74,0,0-.08,0-.13,0-.33,0-.33.73,0,.77Z" transform="translate(-6.71 -0.6)"/><path class="cls-2" d="M31.64,18.62a.9.9,0,0,0,.18,1.1.7.7,0,0,0,1,0,1.11,1.11,0,0,0-1.05-1.74c-.95.26-1.1,1.87,0,2s1.08-1.4.39-1.79c-.92-.54-1.52,1-1,1.63a1,1,0,0,0,1.16.3A1.18,1.18,0,0,0,32.92,19c0-.36-.21-1.08-.68-1a.9.9,0,0,0-.67.86.81.81,0,0,0,1.56.44c.47-1-1.05-2.07-1.63-.95a1.11,1.11,0,0,0,1.62,1.48c.25-.19.06-.91-.27-.66s-.92.29-1-.15.94-.45.79-.07-.78.13-.5-.12.31.36.16.52a.61.61,0,0,1-.38.15c-.3,0-.73-.23-.32-.5s.65.44.15.28c-.32-.1-.18-.42.06-.51a.58.58,0,0,1,.54.06c.12.1.29.3,0,.39s-.28-.22-.38,0a.52.52,0,0,0,0-.54c-.1-.11-.28-.16-.36,0Z" transform="translate(-6.71 -0.6)"/><path class="cls-3" d="M17.29,20.9a1.28,1.28,0,0,0,.21,1.87,1.34,1.34,0,0,0,1.84-.5,1.39,1.39,0,0,0-.63-1.82,1.17,1.17,0,0,0-1.22.12.87.87,0,0,0-.16,1.15c.43-.11,1-.37.91-.81a.58.58,0,0,0-.85-.32.88.88,0,0,0-.29,1,1.24,1.24,0,0,0,2.17.19A1.08,1.08,0,0,0,18,21.43c0,.17.24.26.38.17a.71.71,0,0,0,.23-.47.42.42,0,0,0-.55-.1" transform="translate(-6.71 -0.6)"/><path class="cls-2" d="M17.16,20.57a1.76,1.76,0,0,0,.23,2.53,1.53,1.53,0,0,0,2.27-.92A1.75,1.75,0,0,0,18.36,20a1.29,1.29,0,0,0-1.2,2,.21.21,0,0,0,.25.09c.68-.19,1.43-.83.94-1.6s-1.35-.25-1.5.44A1.44,1.44,0,0,0,19.46,22a.55.55,0,0,0,0-.54,1.34,1.34,0,0,0-1.54-.42c-.17.07-.19.33-.16.48.12.62.78.58,1,0s-.11-1.22-.77-.91c-.29.13-.18.89.15.73a.24.24,0,0,1,.35.07L18.35,21l-.12.28-.16.48a.89.89,0,0,1,1,.23v-.54a1.09,1.09,0,0,1-1.54.22c-.35-.28-.22-1,.3-.8.23.11.07.15-.11.27a2.78,2.78,0,0,1-.48.18l.24.09c-.23-.37.21-.67.52-.72a1,1,0,0,1,.79.19A.89.89,0,0,1,19,22.18a1.17,1.17,0,0,1-1.26.33.81.81,0,0,1-.35-1.29c.2-.23,0-.95-.27-.65Z" transform="translate(-6.71 -0.6)"/><path class="cls-2" d="M23.62,24.52a2.92,2.92,0,0,0,3.2,2,3,3,0,0,0,2.35-2.78c0-.4-.45-.7-.49-.19a2.39,2.39,0,0,1-4.64.57c-.17-.47-.54.07-.42.4Z" transform="translate(-6.71 -0.6)"/><path class="cls-2" d="M28.55,37.21a2.84,2.84,0,0,0,.35,2.5c.26.38.52-.29.34-.55A1.76,1.76,0,0,1,29,37.59c.1-.34-.29-.85-.45-.38Z" transform="translate(-6.71 -0.6)"/></svg>