<svg id="Layer_1" data-name="Layer 1" xmlns="http://www.w3.org/2000/svg" viewBox="0 0 30 20"><title>burger</title><path d="M2,3.5a1.5,1.5,0,0,1,0-3H28a1.5,1.5,0,0,1,0,3Z"/><path d="M28,1a1,1,0,0,1,0,2H2A1,1,0,0,1,2,1H28m0-1H2A2,2,0,0,0,2,4H28a2,2,0,0,0,0-4Z"/><path d="M2,11.5a1.5,1.5,0,0,1,0-3H28a1.5,1.5,0,0,1,0,3Z"/><path d="M28,9a1,1,0,0,1,0,2H2A1,1,0,0,1,2,9H28m0-1H2a2,2,0,0,0,0,4H28a2,2,0,0,0,0-4Z"/><path d="M2,19.5a1.5,1.5,0,0,1,0-3H28a1.5,1.5,0,0,1,0,3Z"/><path d="M28,17a1,1,0,0,1,0,2H2a1,1,0,0,1,0-2H28m0-1H2a2,2,0,0,0,0,4H28a2,2,0,0,0,0-4Z"/></svg>