<svg xmlns="http://www.w3.org/2000/svg" viewBox="0 0 1920 1083"><defs><style>.cls-1{fill:#e5e5e5;}.cls-2{fill:#ff7bac;}.cls-3{fill:#22b573;}.cls-4{fill:#c7b299;}.cls-5,.cls-6{fill:#fff;}.cls-5{stroke:#fff;stroke-miterlimit:10;}.cls-7{fill:#fff110;}</style></defs><title>girl</title><g id="Layer_1" data-name="Layer 1"><rect class="cls-1" width="1920" height="1083"/></g><g id="Layer_6" data-name="Layer 6"><ellipse class="cls-2" cx="829" cy="973" rx="562" ry="108"/><ellipse class="cls-2" cx="1252" cy="894.5" rx="466" ry="87.5"/><ellipse class="cls-2" cx="1282" cy="609.5" rx="388" ry="89.5"/><ellipse class="cls-2" cx="547" cy="562.5" rx="166" ry="46.5"/><ellipse class="cls-3" cx="602.5" cy="866" rx="246.5" ry="70"/><ellipse class="cls-3" cx="1490.5" cy="1019" rx="218.5" ry="64"/><ellipse class="cls-3" cx="1319" cy="406.5" rx="75" ry="34.5"/><path class="cls-3" d="M1511,1005.31c-13.33,10.73-20.82-31.48-22.41-38.51a463.11,463.11,0,0,1-8-48,827,827,0,0,1-5.91-90.22c-.23-28.52,1.71-57.3,8.83-85,6.93-27,18.84-55.36,39.42-74.85,24.75-23.45,59.18-23.66,91.19-22,1.93.1,1.92-2.9,0-3-29.47-1.55-61.69-1.83-86.33,16.93-23.2,17.66-36.78,46.61-44.91,73.92-9,30.4-11.46,62.41-11.2,94a800.69,800.69,0,0,0,7.12,99.79A411.78,411.78,0,0,0,1490.08,985c2,7,3.57,16.62,9.32,21.77,3.94,3.53,9.59,4,13.72.71,1.51-1.21-.63-3.33-2.12-2.12Z" transform="translate(0 1)"/><path class="cls-3" d="M1485.83,732.23c-3.2-2,9.71-7.24,10.1-7.4,3-1.19,6-2.26,9-3.22a114.5,114.5,0,0,1,19.35-4.36,87,87,0,0,1,39.82,3.67c22.81,7.86,42.07,23.93,66.09,28.6,1.89.37,2.69-2.52.8-2.89-29.45-5.73-52.35-28.46-82.4-32.46-14.63-1.95-29.57,0-43.62,4.28-3.34,1-31.57,9.45-20.71,16.37,1.63,1,3.14-1.55,1.52-2.59Z" transform="translate(0 1)"/><path class="cls-3" d="M1538.66,659.51c-21.28-48.71,10.17-101.92-4.88-151.74-.55-1.85-3.45-1.06-2.89.79,15.14,50.14-16.33,103.25,5.18,152.46.78,1.76,3.36.24,2.59-1.51Z" transform="translate(0 1)"/><path class="cls-3" d="M1536.37,581a276.37,276.37,0,0,1,71-56c1.69-.93.18-3.52-1.51-2.59a278.52,278.52,0,0,0-71.61,56.44c-1.3,1.43.81,3.56,2.12,2.12Z" transform="translate(0 1)"/><path class="cls-3" d="M1580.18,644.62c55.56,35.3,124,22.41,182.84,3.49,1.83-.59,1-3.49-.79-2.89-58.06,18.68-125.65,31.69-180.53-3.19-1.64-1-3.14,1.56-1.52,2.59Z" transform="translate(0 1)"/><path class="cls-3" d="M767,933.27c-72-30.75-144.05-61.53-213.85-97-35-17.8-69.37-36.79-102.72-57.47C420.18,760,390.69,740,359.06,723.67c-34.17-17.65-71.14-30.64-110-30.35a1.5,1.5,0,0,0,0,3c71.91-.53,133.4,43.28,191.73,80,65.27,41.05,134.31,75.53,204.51,107.26,39.81,18,80,35.16,120.16,52.32,1.75.75,3.28-1.84,1.51-2.59Z" transform="translate(0 1)"/><path class="cls-3" d="M370.62,731.54c-13.05-53.81-60.7-94.5-64.89-151-.14-1.91-3.14-1.93-3,0,4.23,57,51.87,97.66,65,151.81.45,1.88,3.34,1.08,2.89-.8Z" transform="translate(0 1)"/><path class="cls-3" d="M404.58,733.34c-6.71,1.13-6.21-17.48-6.57-21.34l-2.11-22.53q-2.14-23-4.31-46c-.18-1.91-3.18-1.93-3,0q2.76,29.37,5.5,58.76c.8,8.56.58,18.1,2.69,26.42,1.09,4.31,3.69,8.44,8.6,7.61,1.9-.32,1.09-3.21-.8-2.89Z" transform="translate(0 1)"/><path class="cls-3" d="M450.87,776.34c-43.2-2.8-86.46-6.56-129.73-8.14-36.68-1.34-75.19,1.67-106.56,22.59-14.61,9.74-26.73,22.88-33.85,39-.77,1.75,1.81,3.28,2.59,1.51,13.46-30.52,44.24-48.88,75.8-55.9,39.58-8.81,81.37-3.25,121.36-.66l70.39,4.57c1.93.12,1.92-2.88,0-3Z" transform="translate(0 1)"/><path class="cls-3" d="M1496.2,825.47c1.94-7.44,8.38-13.38,13.69-18.68a155.37,155.37,0,0,1,17.36-14.94,189.37,189.37,0,0,1,37.1-21.21c29.81-13,62.16-18.73,94.42-21.21,19.06-1.47,38.17-1.83,57.28-2a1.5,1.5,0,0,0,0-3c-65.35.49-135.76,4.44-190.31,44.81a159.36,159.36,0,0,0-18.54,16c-5.5,5.55-11.87,11.65-13.9,19.43a1.51,1.51,0,0,0,2.9.8Z" transform="translate(0 1)"/><path class="cls-3" d="M1629.81,756.42c2.15-8.28,8.11-14.64,13.81-20.74a191,191,0,0,1,55.9-41.34c1.73-.85.21-3.44-1.51-2.59a196.91,196.91,0,0,0-41.42,27.33,190.43,190.43,0,0,0-17.91,17.57c-5,5.64-9.82,11.51-11.76,19-.48,1.87,2.41,2.67,2.89.8Z" transform="translate(0 1)"/><path class="cls-3" d="M1677,753.3c24.74-.46,49.3,4.58,73.65,8.39l72.9,11.43c1.89.3,2.71-2.59.8-2.89l-74.85-11.73c-24-3.76-48.15-8.65-72.5-8.2-1.93,0-1.94,3,0,3Z" transform="translate(0 1)"/><path class="cls-3" d="M1583.87,1063.39c55.22-44.77,125.08-64.41,193.73-77.5,19.54-3.72,39.16-6.95,58.8-10.13,1.9-.31,1.09-3.2-.8-2.89C1765.93,984.14,1694.27,996,1631,1029a293.34,293.34,0,0,0-49.27,32.24c-1.5,1.22.63,3.33,2.12,2.12Z" transform="translate(0 1)"/><path class="cls-3" d="M644.34,1072c-59.55-61.48-119.53-123.3-188.53-174.35A688.51,688.51,0,0,0,395,857.34a1.5,1.5,0,0,0-1.51,2.59c74,43.51,137.75,101.78,198.06,162.38,17,17.12,33.84,34.46,50.64,51.8,1.34,1.39,3.46-.73,2.12-2.12Z" transform="translate(0 1)"/><path class="cls-3" d="M489.35,933.19c8.85-14.43,17.72-28.9,24.87-44.27A188.42,188.42,0,0,0,529,840.05c3-18.08,5.5-36.28,8.15-54.42,1.57-10.69,2.78-23.56-6.81-30.9-1.53-1.18-3,1.43-1.51,2.59,11.35,8.7,5.25,28.69,3.54,40.29-2.43,16.38-4.46,32.88-7.61,49.13-6,31.24-21.58,58.13-38,84.93-1,1.65,1.58,3.16,2.59,1.52Z" transform="translate(0 1)"/><path class="cls-3" d="M1304.08,374.53c-10.49-11.5,1.82-31.1,7.52-42.12a299.41,299.41,0,0,1,84-100.28c1.51-1.16,0-3.76-1.51-2.59a305,305,0,0,0-65.76,69.07,298.3,298.3,0,0,0-24.43,42.57c-5,10.72-11.3,25.26-2,35.47,1.31,1.43,3.42-.7,2.12-2.12Z" transform="translate(0 1)"/><path class="cls-3" d="M1345.93,287.93a214.82,214.82,0,0,1,59.65-11.47c1.93-.1,1.94-3.1,0-3A218,218,0,0,0,1345.13,285c-1.81.62-1,3.52.8,2.89Z" transform="translate(0 1)"/><path class="cls-3" d="M1316.63,306.16l-8.27-61.59c-.25-1.89-3.26-1.91-3,0l8.27,61.59c.25,1.89,3.25,1.91,3,0Z" transform="translate(0 1)"/></g><g id="Layer_2" data-name="Layer 2"><path d="M564.46,244.45" transform="translate(0 1)"/><path d="M564.46,246.88c3.14,0,3.14-4.87,0-4.87s-3.14,4.87,0,4.87Z" transform="translate(0 1)"/><path d="M566.05,258.92C511.59,270.72,463.6,322.7,445.5,389.5S439.93,535.16,477,587.6c4.57,6.47,9.83,13.69,9.41,22.39-.31,6.37-3.63,11.73-5.81,17.46-12.34,32.42,12.59,67.61,36.8,86,37.55,28.54,79.9,46.69,123.3,52.84,18.91,2.68,38.36,3.22,56.07,12.09,13.68,6.84,25.57,18.3,37.81,28.69C795,858.42,867.78,885.6,940.31,883.93c75-1.73,148.28-33.31,223.26-32.16,22.13.34,44.43,3.52,66.28-1,34.9-7.18,65.69-33.28,99.87-44.82,36.44-12.31,80-10.48,104.51-47.19,12.62-18.94,17.11-44.68,18.37-69.54,2.17-42.85-4.35-87-21.74-123.73s-46.24-65.25-79.19-73.28c-9-2.19-18.83-3.26-25.58-11.15-4.9-5.73-7.27-14.11-9.34-22.2-16.53-64.66-25.24-132.46-44.36-195.95s-51.08-124.64-99.38-153-114.5-12.77-140.31,46.71c-9.94,22.93-13.16,49.49-19.37,74.48s-16.88,50.45-35.5,61.38c-5.92,3.48-12.79,5.29-19,2.66-6.56-2.79-11.27-10-15.78-16.67-37.54-55.76-84.86-99-131.69-141.75C756.06,86.26,649,153,601,198" transform="translate(0 1)"/><path d="M565.4,256.57c-42.94,9.56-77.63,41.43-99.6,78.48-25.64,43.22-34.62,94.72-29.56,144.41a249.72,249.72,0,0,0,18.17,72.19,201.59,201.59,0,0,0,17.12,32.26c3.05,4.64,6.58,9,9.21,13.9,4.05,7.56,3.64,14.54.37,22.24-4.71,11.08-7.34,21.62-5.59,33.7s6.93,23.37,13.66,33.37c14.13,21,35.15,35.78,56.74,48.33a265.78,265.78,0,0,0,75.83,29.9c27.11,6,57,4,81.2,19.39,12.32,7.85,22.76,18.26,34,27.51a349.45,349.45,0,0,0,33.15,24.24,322.79,322.79,0,0,0,70.83,34.34,293.18,293.18,0,0,0,76.48,15.11c27.59,1.65,55.11-1.28,82.26-6.06,58.47-10.29,115.64-28,175.63-25.29,15.59.71,31.27,1.91,46.82-.07,13-1.65,25.29-5.83,37.17-11.22,24.44-11.11,46.71-27,72.36-35.4,20.94-6.87,43.16-9.08,63.84-16.86s37.65-21.82,47.07-42.25c11.29-24.48,13.2-52.92,12.85-79.52-.37-27.68-4.34-55.58-13.17-81.88-14.93-44.51-46.22-87.66-94.22-98.48-6-1.35-12.11-2.68-17-6.52-6-4.7-8.59-12.18-10.6-19.28-4.11-14.48-7.26-29.28-10.43-44-6.33-29.42-11.8-59-18.1-88.44C1280.39,277.08,1266,223,1237.8,175.44c-21.79-36.69-54.68-73.28-98.9-80.34a100.09,100.09,0,0,0-99.63,44.13c-14.51,22.29-19.11,48.94-24.5,74.5-5.2,24.62-11.44,53.52-30.86,71.25-4.66,4.25-10.64,8.28-17.08,8.92-8.76.86-14.39-6.15-18.9-12.6C940.05,270,932.29,258.78,923.77,248c-17.47-22.18-36.77-42.86-56.89-62.65-10-9.85-20.25-19.5-30.57-29-9.08-8.4-17.92-17.48-27.72-25-14.35-11.07-32.32-15.43-50.24-14.94-41.53,1.12-81.87,22.66-115.48,45.46a359.06,359.06,0,0,0-43.59,34.53c-2.3,2.14,1.15,5.58,3.44,3.44,29.6-27.64,64.92-51.36,102.64-66.31,18.29-7.26,37.93-12.66,57.75-12.27A77.93,77.93,0,0,1,789.37,126c9.35,3.54,16.86,9.35,24.17,16,40.85,37.28,81.56,75.23,114.7,119.75q6,8.1,11.7,16.45c3.42,5,6.7,10.44,11.19,14.62,8.59,8,19.62,7.05,29.11,1.08,19.31-12.16,28.49-36.34,34.2-57.33,7.22-26.56,9.64-54.68,21-80,8.65-19.39,23-36,41.66-46.27a95.32,95.32,0,0,1,55.16-11.16c20.61,2,39.39,11,55.44,23.87,38.46,30.77,61.45,78.21,77,123.88,18.79,55.13,27.7,113,39.79,169.82,3.06,14.34,6.27,28.66,9.93,42.86,2.79,10.81,6.2,22.5,16.36,28.61,9.26,5.57,20.82,5.89,30.8,9.75a102.24,102.24,0,0,1,29.37,17.94C1432,551,1448,607.93,1450.28,660.18c1.16,26.77.08,55.41-9.63,80.68-8.77,22.87-26.15,38.36-49,46.41-20,7-41.2,9.34-61.28,15.93-25,8.19-46.83,23.3-70.47,34.47-12.61,6-25.79,10.63-39.7,12.21-14.92,1.69-30,.52-44.89-.16-28.24-1.28-56.11,1.58-83.88,6.58-55.78,10.05-111,27.3-168.29,25.05-52.4-2.06-103.39-19.35-147.64-47.2a338.61,338.61,0,0,1-33.72-24.22c-10.29-8.38-19.89-17.64-30.63-25.46a91.37,91.37,0,0,0-36-15.81c-13.35-2.73-27-3.45-40.44-5.74a256.3,256.3,0,0,1-77-26.54c-22.74-12.08-46-26.87-61.49-47.84-7.27-9.82-13.12-21-15.42-33.09a51.5,51.5,0,0,1-.28-18.32c1.14-6.53,4.1-12.17,6.41-18.3,4.42-11.74-.12-21.56-6.89-31.24a207,207,0,0,1-17.54-29.93c-41.15-86.8-28-206.66,49.55-269.35,16-12.94,34.6-22.56,54.74-27,3-.68,1.76-5.38-1.3-4.7Z" transform="translate(0 1)"/></g><g id="Layer_3" data-name="Layer 3"><path class="cls-4" d="M860.37,345c-6-.49-8.23,7.55-8.27,13.52-.28,51.92,9.39,104.34,32.14,151s59,87.35,104.89,111.65c15,7.94,31.25,14.19,48.19,15,43.47,2.14,81.91-32.62,98.26-73s15.43-85.3,14.27-128.81c4.39,5.24,9,10.65,15.21,13.5s14.54,2.32,18.77-3c2.1-2.67,2.91-6.1,3.61-9.42,2.45-11.71,4.08-24,1-35.53s-11.83-22.3-23.58-24.5c-10.49-2-22.42,2.73-31.44-3-8.25-5.21-9.91-16.67-16.64-23.73-7.72-8.09-20.19-8.77-31.37-8.92l-214-2.85c-6.25-.09-15.13,3.3-12.82,9.1" transform="translate(0 1)"/><path class="cls-4" d="M860.37,343.47c-6.7,0-9.11,7-9.65,12.7-1.07,11.41.16,23.54,1,34.93A353.24,353.24,0,0,0,864.12,461c12,41.83,32.74,81.14,62.29,113.23a237.47,237.47,0,0,0,47,39.56c18,11.43,38.08,21.36,59.51,23.58,38.53,4,73.19-21.08,93.06-52.33,28.19-44.32,26.68-100.14,25.34-150.61l-2.56,1.06c7.39,8.8,18.38,19.91,31,14.24,5.51-2.47,7.66-7.57,8.9-13.16A101.84,101.84,0,0,0,1191.6,412c-.35-13.14-5.38-26.79-16.86-34.17-5.45-3.5-11.55-4.54-17.94-4.39-8.11.2-17.66,2.2-24.4-3.6-5-4.28-7.1-11-10.37-16.49a27,27,0,0,0-12.86-11.5c-13.46-5.68-30.34-3.62-44.55-3.81l-111.95-1.49-63.41-.85c-6.26-.08-36.28-3.72-32.1,10.77a1.51,1.51,0,0,0,2.9-.8c-2.3-7.94,13.23-7.18,17.31-7.13l23.78.32,47.55.63,95.11,1.27c15.34.21,30.71.09,46,.66,6.5.24,13.33.81,19.28,3.67s9.31,7.72,12.26,13.34c4.85,9.27,9.44,17.2,20.83,18.32,5.94.59,11.89-.56,17.85-.31a26.51,26.51,0,0,1,19.27,9.33c11.87,13.53,10.19,32.94,6.65,49.3-1.86,8.63-6.89,14.71-16.6,12.71-8-1.63-13.53-8.5-18.48-14.4a1.51,1.51,0,0,0-2.56,1.06c1.17,44.1,2.55,90.92-15.8,132.12-14.71,33.05-45,63.25-82.22,67.71-21.23,2.54-41.9-4.56-60.44-14.37A225.29,225.29,0,0,1,943,586.53c-29.59-27.22-52.12-61.59-66.73-99a327.65,327.65,0,0,1-18.72-71.64A371.17,371.17,0,0,1,854,378.42c-.27-6-.43-12.08-.39-18.12,0-4.58.36-13.8,6.77-13.83a1.5,1.5,0,0,0,0-3Z" transform="translate(0 1)"/><path class="cls-4" d="M1054,639.21c1.58,21,2.74,43.75-8.78,61.39-15.63,24-51.18,32.77-59.37,60.19a550.08,550.08,0,0,0,254.64,25,14.23,14.23,0,0,0,5.64-1.61c4.76-3,4.44-10.07,2.29-15.25-8-19.33-30.68-27.55-51.17-31.83s-43-7.6-57.25-23c-13.85-15-15.73-37.13-16.88-57.5l-3.81-67.07" transform="translate(0 1)"/><path class="cls-4" d="M1052.53,639.21c1.11,14.92,2.19,30.39-1.73,45-3.44,12.85-11.19,22.69-21.33,31-16.37,13.39-38.2,23.57-45,45.19a1.51,1.51,0,0,0,1,1.84,553.3,553.3,0,0,0,229.2,28c9.18-.83,18.64-1.46,27.7-3.23,5.77-1.13,9-5,9-10.94,0-13-12.1-23.86-22.53-29.67-27.22-15.16-65.54-9.25-87.81-33.35-13.15-14.23-15.13-34.93-16.26-53.37-1.44-23.37-2.66-46.76-4-70.14-.11-1.92-3.11-1.93-3,0l3.36,59.18c.89,15.74,1.24,32.06,6.51,47.1a53.21,53.21,0,0,0,26.59,30.66c13.5,6.81,28.63,9.08,43.27,12.21,14.16,3,29.22,7.56,40.09,17.6,5.43,5,11.14,12.66,10.78,20.44-.32,6.72-6.26,7.35-11.61,8q-7.36,1-14.75,1.74a548.79,548.79,0,0,1-235.8-27.19l1.05,1.85c7.28-23,32.63-32.76,49.11-48.07a59.37,59.37,0,0,0,18-31.21c3.07-14,2.15-28.52,1.09-42.7-.14-1.91-3.14-1.93-3,0Z" transform="translate(0 1)"/></g><g id="Layer_4" data-name="Layer 4"><path d="M1156.8,410.07A43,43,0,0,1,1171,388c1.49-1.24-.64-3.35-2.12-2.12a45.68,45.68,0,0,0-15,23.35,1.5,1.5,0,0,0,2.89.8Z" transform="translate(0 1)"/><path d="M1159.48,400.86a50.83,50.83,0,0,1,17.33,25.44c.55,1.85,3.45,1.06,2.89-.79a53.45,53.45,0,0,0-18.1-26.77c-1.49-1.19-3.63.92-2.12,2.12Z" transform="translate(0 1)"/><ellipse class="cls-5" cx="929.5" cy="483.5" rx="41" ry="43"/><ellipse class="cls-5" cx="1074.5" cy="476.5" rx="42" ry="39"/></g><g id="Layer_5" data-name="Layer 5"><path class="cls-6" d="M1074.07,469.72c-5.62.28-7.82,8.75-2.82,11.56a1.52,1.52,0,0,0,2.21-.9,6.43,6.43,0,0,0-4.94-7.79c-1.89-.35-2.7,2.54-.8,2.89a3.41,3.41,0,0,1,2.84,4.1l2.21-.89c-2.3-1.3-1.42-5.84,1.3-6,1.93-.09,1.94-3.09,0-3Z" transform="translate(0 1)"/><path d="M933.51,479.42a4.58,4.58,0,0,0,1,5.42c1.63,1.55,3.84,1.59,5.14-.31a5.94,5.94,0,0,0-3.14-8.82,1.5,1.5,0,0,0-.8,2.89c2.12.58,2.45,3.59.83,4.86l1.06-.44a1.56,1.56,0,0,1-1.49-2.09c.85-1.73-1.74-3.25-2.59-1.51Z" transform="translate(0 1)"/><path d="M1075.8,470.76a6.27,6.27,0,0,0,1.68,6.8,1.54,1.54,0,0,0,2.12,0,5.17,5.17,0,0,0-6.47-8.05,1.55,1.55,0,0,0-.54,2.05,1.52,1.52,0,0,0,2.06.54,2.36,2.36,0,0,1,3.25.12,2.33,2.33,0,0,1-.42,3.22h2.12a3.36,3.36,0,0,1-.9-3.88c.69-1.81-2.21-2.59-2.9-.8Z" transform="translate(0 1)"/><path d="M976.57,529.83c6.79,8.66,18.32,13.16,29.17,10.64a28.61,28.61,0,0,0,14-8.08,29.89,29.89,0,0,0,4.45-6c.52-.92,3.52-7.68,3.68-7.5,1.3,1.43,3.42-.69,2.13-2.12-1.67-1.84-4.4-1.83-5.63.52-1.45,2.74-1.74,6-3.49,8.8a26.76,26.76,0,0,1-7.28,7.6c-11.33,7.89-26.59,4.59-34.89-6-1.19-1.52-3.3.62-2.13,2.12Z" transform="translate(0 1)"/><path d="M982.59,525a17.82,17.82,0,0,0-11.54,5c-1.39,1.35.74,3.47,2.12,2.13a14.54,14.54,0,0,1,9.42-4.16c1.92-.12,1.93-3.12,0-3Z" transform="translate(0 1)"/><path d="M1021.39,514.13a19,19,0,0,0,11.86,7.51c1.89.35,2.7-2.54.8-2.89a16.06,16.06,0,0,1-10.07-6.13c-1.14-1.53-3.75,0-2.59,1.51Z" transform="translate(0 1)"/><path d="M894.09,435.16a48.15,48.15,0,0,0,37.66-20.06c1.13-1.56-1.47-3.06-2.59-1.51a45,45,0,0,1-35.07,18.57c-1.92.07-1.93,3.07,0,3Z" transform="translate(0 1)"/><path d="M1099.55,429.77A176.74,176.74,0,0,1,1036,413.88c-1.74-.8-3.27,1.78-1.51,2.59a180.67,180.67,0,0,0,65,16.3c1.93.11,1.92-2.89,0-3Z" transform="translate(0 1)"/><path d="M990.06,469.59a92.52,92.52,0,0,0,1.79,18.78c.81,4,1.49,10.8,4.63,13.8,2.19,2.11,4.71,1.15,6.54-.89,3.92-4.4,6.68-10.68,9.77-15.7,1-1.65-1.58-3.16-2.59-1.51l-5.87,9.54c-.62,1-1.82,4.17-2.93,4.77-4.29,2.33-4.45-2.11-5.13-4.52a88.06,88.06,0,0,1-3.21-24.27,1.5,1.5,0,0,0-3,0Z" transform="translate(0 1)"/><path class="cls-7" d="M740.15,983.17" transform="translate(0 1)"/><path class="cls-7" d="M731,1077c9.29-42.62,36.42-178.67,59.27-214.91,5.93-9.41,12.41-18.66,20.93-25.4,7.92-6.26,17.24-10.08,26.53-13.55,18.79-7,38.09-13,55.48-23.36s33-26,39.3-46.24c1.8-5.83,2.94-12.23,6.87-16.7,5-5.66,12.93-6.59,20.17-7,85.36-4.89,170.43,13.69,255.92,14.53,45.64.45,91.19-4.16,136.59-9.25,7.07-.8,14.27-1.6,21.25-.13,8.18,1.73,15.52,6.46,22.42,11.47,50.21,36.52,86,91.18,120.7,144.61l46.32,71.38c3.51,5.4,7.11,11,8,17.55,1.47,10.4,27.22,85,19.22,91" transform="translate(0 1)"/></g></svg>