<svg xmlns="http://www.w3.org/2000/svg" viewBox="0 0 480 480"><defs><style>.cls-1{fill:#111;}.cls-1,.cls-2{stroke:#111;stroke-miterlimit:10;}.cls-2{fill:none;stroke-width:40px;}</style></defs><title>github-logo</title><g id="Layer_4" data-name="Layer 4"><path class="cls-1" d="M371.18,319.89c-15.86-2-31-4.93-44.88-12.28a69.54,69.54,0,0,1-25.94-23.53,7.12,7.12,0,0,0-5.21-2.63,322,322,0,0,0-76.56,10.62,6.84,6.84,0,0,1-4.5-.12c12.94-5.43,26.59-8.06,40.37-9.8,14-1.78,28.16-2.86,42.25-4.25-.39-4.83-2.95-6.53-8.15-6.07-24,2.1-48,3.88-71.94,5.75-.89.07-1.78,0-2.68,0l-.36-1.28c1.55-.57,3.06-1.51,4.65-1.66q28.32-2.55,56.68-4.86c6-.49,12-.58,17.26-.81-1.23-11.07-2.67-21.9-3.58-32.78-1.52-17.91,2.83-34.19,14.76-48,2.32-2.67,2.8-5.08,2-8.61-2.91-13.33-2.48-26.57,2.29-39.55,1.08-2.94,2.67-3.9,5.64-3.75,10.48.53,19.84,4.49,28.85,9.38,5.17,2.81,9.75,7.81,15.14,8.78s11.33-2.3,17.12-3c21.64-2.62,43.25-2.77,64.77,1.53a10.78,10.78,0,0,0,6.12-1.1c10.39-4.79,20.3-11,31.11-14.41,14.39-4.56,15.15-2.43,17.26,10.28,1.51,9.11.17,18.68.39,28.05.06,2.64.28,6,1.84,7.78,16,18.47,19.65,40.25,17.41,63.61-.68,7.12-1.89,14.19-2.93,21.74,27.33.67,54.89,1,81.91,6.75l0,1.78a25.79,25.79,0,0,1-4.57,0c-24.1-4.36-48.46-5.28-72.88-5.71-4.94-.09-7.48,1.46-7.5,6.75,28.13,1.62,56.3,3.32,83.43,12,.38.12.51,1,1.23,2.55-2.29-.5-3.73-.74-5.13-1.13-25.37-7-51.37-9.45-77.55-10.39-1.58-.06-4.07.75-4.66,1.91-9.24,18.13-25,27.07-43.94,31.56-8.66,2.06-17.49,3.42-26.31,5.12,0,0-.14.47,0,.55,9.43,6.71,12.91,16.45,13.25,27.38.47,15.14.79,30.3.33,45.43-.25,8.45,2.53,14.42,9.45,18.95,1.84,1.2,3.08,3.33,4.59,5-2.44.78-5,2.48-7.28,2.15-5.27-.76-10.75-1.76-15.48-4-6-2.89-8.76-8.51-8.81-15.35-.09-13.24-.17-26.48-.5-39.72-.13-5.1.18-10.55-5.27-15-.21,2.07-.45,3.37-.45,4.68,0,17.07,0,34.15,0,51.23a25.4,25.4,0,0,0,5.93,17.23,6.68,6.68,0,0,1,1.62,2.34c.43,1.72,1.27,4.06.51,5.16s-3.38,1.4-5,1.07c-13.47-2.78-21.22-12-21.59-26.57-.43-16.9-.2-33.82-.25-50.74,0-1.89,0-3.78,0-6h-4.6c-.08,1.09-.2,2-.21,2.93-.28,18.34-.48,36.68-.83,55-.22,11.31-5.56,19.36-15.95,24a6.52,6.52,0,0,1-2.68.95c-2.69-.16-5.36-.59-8-.91,1-2.12,2.11-4.2,3-6.37,1.51-3.62,4-7.26,4.12-11,.63-20.23.66-40.49.87-60.73,0-.42-.28-.84-1.79-1.7-1.2,3.39-3.31,6.75-3.43,10.17-.51,13.87-.45,27.75-.51,41.63-.07,14.45-15,25.46-29.2,21.46-3.13-.88-3-2.69-1.23-4.49a52.11,52.11,0,0,1,6.32-5.09c4.5-3.39,6.82-7.63,6.65-13.5-.28-9.7-.07-19.41-.07-29.42-5.24.31-9.95.71-14.66.84-20.89.57-32.44-6.68-40.76-25.84a46.77,46.77,0,0,0-17.33-21.12,18.61,18.61,0,0,1-3.05-2.3c-2.51-2.57-2-4.65,1.54-5.39,6.64-1.39,12.93-.17,17.84,4.53a142,142,0,0,1,12.66,14.27c10.41,13.1,25.83,17.4,41.26,10.93,1.81-.76,3.25-3,4.31-4.81,1.71-3,2.66-6.49,4.5-9.42S368.5,323.13,371.18,319.89Zm36.14-8.06c9.74-.48,22.19-.64,34.55-1.8,25.26-2.38,40.36-16.18,43.75-39.17C490,241.14,471,219.7,442,222.31a455.64,455.64,0,0,1-78.79,0c-28.8-2.38-48.52,18-45,46.62,2.59,21.05,15.85,32.49,35.11,38.31C370.14,312.27,387.48,310.85,407.32,311.83Z" transform="translate(-162.94 -41.28)"/><path class="cls-1" d="M369.34,262.67c-2,4.95-3.21,9.67-5.74,13.48-3.41,5.14-9.69,5.07-14,.64-6.45-6.62-6.39-21.19.1-27.72,4.07-4.09,10-4.39,13.35.28C365.83,253.16,367.2,258,369.34,262.67Z" transform="translate(-162.94 -41.28)"/><path class="cls-1" d="M463.72,263.38c-2,4.58-3.23,9.3-5.86,13-3.61,5.13-10.29,4.68-14.33-.19-5.66-6.83-5.69-19.52-.07-26.31,4.37-5.28,11.2-5.4,14.92.39C460.78,254,461.84,258.63,463.72,263.38Z" transform="translate(-162.94 -41.28)"/></g><g id="Layer_6" data-name="Layer 6"><rect class="cls-2" x="20" y="20" width="440" height="440" rx="3" ry="3"/></g></svg>