<svg id="Layer_1" data-name="Layer 1" xmlns="http://www.w3.org/2000/svg" viewBox="0 0 233.22 209.03"><defs><style>.cls-1{fill:#b21f29;}.cls-2{fill:#252a26;}.cls-3{fill:#fff;}</style></defs><title>nica-logo-joy</title><path class="cls-1" d="M23.72,69.71l-9.88,32.85c-1,3.3-2,6.75-1.46,10.17s2.44,6.17,4.4,8.83c30.24,41.1,80.93,59.14,128.59,75a9.63,9.63,0,0,0,5,.73c3.55-.78,5.07-5,6-8.65a757.45,757.45,0,0,0,16.94-96.52c.87-8,1.6-16.13-.29-23.9-4.9-20.08-25.27-31.47-44.24-38.37-25.88-9.42-56-14.67-79.73-.48C26.05,43.13,15.5,71,7.12,97" transform="translate(-5.97 10.03)"/><path class="cls-1" d="M22.67,68.81C19.29,80,15.77,91.23,12.54,102.49c-2.69,9.36-.55,15.3,5.3,22.87,11.17,14.47,25.3,26.36,40.76,36,15.68,9.8,32.59,17.43,49.82,24.06,9,3.45,18,6.64,27.16,9.73,6.54,2.22,15.58,7.6,20-.39,1.71-3.11,2.28-6.92,3.09-10.33q2.1-8.88,4-17.81,3.67-17.4,6.53-35T174,96.42c1.14-9.94,2.49-20.28-.25-30.08-4.48-16-18.46-26.44-32.8-33.28-17-8.12-36.49-13.72-55.4-14.2-21-.54-40.4,7.23-53.88,23.59C19,57.89,12.15,77.29,6.06,96.06c-.52,1.59,1.38,4.07,2.11,1.79,10.12-31.19,24.42-67,60.52-74,17.86-3.47,36.44.07,53.5,5.64,15.1,4.94,31.3,11.65,41.76,24.15,13.55,16.18,8.41,38,5.82,57.16q-4.11,30.49-10.71,60.58-1.53,7-3.21,14.05c-.56,2.31-1,4.87-2.2,7-2.29,4-5.79,3.17-9.46,2q-11.81-3.89-23.5-8.09a373.69,373.69,0,0,1-45.87-19.48c-16.63-8.63-32.36-19.24-45.49-32.69A132.5,132.5,0,0,1,20,123.35a63.46,63.46,0,0,1-4.25-5.84c-2.7-4.46-2.4-8.4-1-13.22C17.81,93,21.41,81.82,24.78,70.6c.48-1.59-1.43-4.08-2.11-1.79Z" transform="translate(-5.97 10.03)"/><path class="cls-1" d="M15.32,71.44c-3.17,6.79-3.5,14.07-3.66,21.45-.2,9.08-.35,18.17-.52,27.25-.05,2.26,2.36,2.18,2.4,0L14,96.72c.15-8,0-16.07,3.44-23.49.73-1.56-1.1-4-2.11-1.79Z" transform="translate(-5.97 10.03)"/><path class="cls-2" d="M36.13,36.13a35.59,35.59,0,0,1-18.2-16.26l9.59,3.58a2.53,2.53,0,0,0,2.14.13c.81-.48.87-1.63.82-2.58Q30,9.77,28.42-1.37l9.74,13.91c1.24,1.77,2.94,3.74,5,3.37,1.81-.31,2.84-2.25,3.61-4q4.51-10.09,9-20.2L60.47,6.49c.69,2.16,1.76,4.69,4,5,4.51.71,5.16-7.91,9.6-8.95a39.83,39.83,0,0,1-.6,17.81" transform="translate(-5.97 10.03)"/><path class="cls-2" d="M36.4,34.36a35.74,35.74,0,0,1-17.66-15.8l-1.09,3.08c3.61,1.35,12.07,7,13.88,1.27,1-3.23-.18-8-.46-11.28-.38-4.52-.9-9-1.51-13.51l-2,1.82c3.24,4.63,6.32,9.42,9.75,13.92C39,16,41.16,18.6,44.15,17.41s4.36-6.06,5.58-8.78l7.14-16-2.08.05C56.4-2.23,57.77,3,59.65,8c.8,2.14,2,4.81,4.49,5.31,5.36,1.07,6.12-7.48,10.25-9L72.88,3.09a40.87,40.87,0,0,1-.63,16.84c-.47,1.92,1.77,3.25,2.34.91a45.73,45.73,0,0,0,.58-18.78c-.12-.71-.7-1.53-1.51-1.24-4,1.43-3.94,5.83-7,8-4.11,3-5.59-4.51-6.38-7l-3.5-11c-.4-1.28-1.63-.94-2.07,0L50.24.94C48.9,4,47.81,8,45.88,10.66c-4.55,6.19-7.63-.47-10.15-4.07l-6.5-9.27c-1.17-1.67-2.1.81-2,1.82.81,6,1.44,12.08,1.81,18.15.2,3.15.57,4.56-2.88,3.79-2.67-.59-5.42-2-8-3-1.66-.62-1.53,2.31-1.09,3.08A38.17,38.17,0,0,0,35.85,37.9c1.6.67,2-2.95.55-3.54Z" transform="translate(-5.97 10.03)"/><path class="cls-2" d="M34.2,78.16a17.93,17.93,0,0,0,1,9.75c.28.72,1,1.14,1.66.62A2.38,2.38,0,0,0,37.2,86a12.51,12.51,0,0,1-.66-7c.35-1.93-1.91-3.3-2.34-.91Z" transform="translate(-5.97 10.03)"/><path class="cls-2" d="M43.69,111.47,54,121.62c1.37,1.35,2.2-2.14,1.14-3.18L44.83,108.29c-1.37-1.35-2.2,2.14-1.14,3.18Z" transform="translate(-5.97 10.03)"/><path class="cls-2" d="M74.65,146.51l5,7.29a1,1,0,0,0,1.7,0,2.51,2.51,0,0,0-.06-2.59l-5-7.29a1,1,0,0,0-1.7.05,2.49,2.49,0,0,0,.06,2.58Z" transform="translate(-5.97 10.03)"/><path class="cls-2" d="M128.54,185.1a10.61,10.61,0,0,0,5.36,3.24c1.74.43,2-3.17.55-3.54a9.33,9.33,0,0,1-4.78-2.88c-.59-.66-1.41.11-1.62.69a2.43,2.43,0,0,0,.49,2.49Z" transform="translate(-5.97 10.03)"/><path class="cls-2" d="M154,184.44a15.83,15.83,0,0,1-3.34-14.5c.44-1.59-1.49-4.09-2.12-1.79a20.7,20.7,0,0,0,3.83,18.91c1.42,1.71,2.62-1.43,1.63-2.62Z" transform="translate(-5.97 10.03)"/><path class="cls-2" d="M159.6,140.89V135.7c0-.7-.4-1.8-1.25-1.8s-1.15,1.2-1.15,1.86V141c0,.71.39,1.81,1.24,1.8s1.16-1.19,1.16-1.86Z" transform="translate(-5.97 10.03)"/><path class="cls-2" d="M155.72,94.7a58.74,58.74,0,0,0-5.64-19c-1.06-2.15-2.79.36-2,1.89a55.65,55.65,0,0,1,5.38,18.1c.29,2.4,2.52.87,2.29-1Z" transform="translate(-5.97 10.03)"/><path class="cls-2" d="M108.53,47.94a36.72,36.72,0,0,0-10.38-5.37c-1.69-.54-2,3.07-.55,3.54a34.39,34.39,0,0,1,9.79,5c1.6,1.17,2.35-2.29,1.14-3.19Z" transform="translate(-5.97 10.03)"/><path class="cls-2" d="M52.26,42.29a26.66,26.66,0,0,0,2.23,12.33c1,2.2,2.71-.34,2-1.89a22.28,22.28,0,0,1-1.86-10.5c.13-2.26-2.27-2.16-2.4.06Z" transform="translate(-5.97 10.03)"/><path class="cls-2" d="M76.48,78.64V91.1c0,2.25,2.4,2.18,2.4-.06V78.58c0-2.25-2.4-2.19-2.4.06Z" transform="translate(-5.97 10.03)"/><path class="cls-2" d="M96.12,126.56,105.2,137c1.46,1.68,2.66-1.45,1.63-2.62l-9.07-10.39c-1.46-1.67-2.66,1.45-1.64,2.62Z" transform="translate(-5.97 10.03)"/><path class="cls-2" d="M139.41,147.12v-13.5c0-2.25-2.4-2.18-2.4.06v13.5c0,2.25,2.4,2.19,2.4-.06Z" transform="translate(-5.97 10.03)"/><path class="cls-2" d="M118.14,87.36a18,18,0,0,0-1-9.75c-.28-.72-1-1.14-1.66-.62a2.38,2.38,0,0,0-.37,2.51,12.59,12.59,0,0,1,.65,7c-.34,1.93,1.92,3.3,2.34.91Z" transform="translate(-5.97 10.03)"/><path class="cls-2" d="M128.12,41.89a11.73,11.73,0,0,0-7.78-5.51c-1.77-.33-2,3.26-.55,3.54a9.78,9.78,0,0,1,6.7,4.6,1,1,0,0,0,1.69,0,2.51,2.51,0,0,0-.06-2.59Z" transform="translate(-5.97 10.03)"/><path class="cls-2" d="M59.56,96.06c3.63-.11,3.53-7.38-.08-7.5-1.6-.06-1.55,3.6.09,3.65.2,0,0,0,.29.08-.08,0-.1-.09,0,0-.2-.34,0,.36,0-.1,0,.21,0,.18,0-.08a1.27,1.27,0,0,1,0,.2c0,.14,0,.09,0-.15,0,.19,0,.17,0,0a2.25,2.25,0,0,1-.08.24c.09-.18.09-.19,0,0,.29-.31-.3.18,0,0-.13,0-.14.06,0,0a1.23,1.23,0,0,1-.27,0c-1.62,0-1.53,3.7.09,3.66Z" transform="translate(-5.97 10.03)"/><path class="cls-3" d="M120.5,65.39c-.81,2.27,3.3,3.71,4.41,1.59s-1.14-4.89-3.48-4.74a3.82,3.82,0,0,0-3.52,4c.24,2,2.79,3.38,4.39,2.21,1.87-1.37.57-5-1.72-5s-3.71,3.32-2.31,5.19,4.64,1.55,5.85-.46a4.59,4.59,0,0,0-1.71-6.07c-2.15.24-2.81,3.83-1,5s4.57-.87,4.23-3.06a3.28,3.28,0,0,0-5-2,3.86,3.86,0,0,0,.08,5.76,4.07,4.07,0,0,0,5.7-1.06" transform="translate(-5.97 10.03)"/><path class="cls-2" d="M119.44,64.5c-.49,1.9-.06,4,1.83,4.91a3.38,3.38,0,0,0,4.52-1.16c2.53-4.31-2.88-10.22-7.09-6.75A5.69,5.69,0,0,0,117,67.78c.72,1.84,2.73,3.39,4.78,2.81,4-1.11,3.09-8.07-.63-8.91-4.72-1.07-5.94,6.69-2.92,9.09a4.67,4.67,0,0,0,5.69-.15c1.83-1.5,2.22-4.16,1.66-6.34-.41-1.59-2-4.65-4.05-3.83-1.85.75-2.52,3.08-2.37,4.91s1.44,3.93,3.59,3.85,3.8-2.11,4.07-4.15a4.77,4.77,0,0,0-3.45-5.31c-2.48-.61-4.48,1.13-5,3.47s.16,5.35,2.43,6.58,5,.19,6.49-1.81c.93-1.24-.43-4.32-1.76-2.54-1.07,1.44-5.23,2-4.93-.75.24-2.24,4.25-1.44,3.73-.06-.28.75-2,1.34-2.59.63a.83.83,0,0,1,.4-1.26c.63-.14,1.35,1.48,1.32,2.1a2.24,2.24,0,0,1-2,1.87c-.73.13-2.19,0-2.48-.91-.23-.73.65-1.62,1.27-1.78s1.68.23,1.74,1-.93.88-1.54.73c-3-.77.35-3.77,2.43-2.61.7.39,1.73,1.42.52,1.77a2,2,0,0,1-1.25-.16c-.79-.35-.32-.61-.55.29a2.38,2.38,0,0,0-.5-2.49,1,1,0,0,0-1.62.7Z" transform="translate(-5.97 10.03)"/><path class="cls-3" d="M55.91,91.33a6.28,6.28,0,0,0,3,8.59c3.18,1.2,7.1-1,7.91-4.41A6.79,6.79,0,0,0,62,87.62a5.4,5.4,0,0,0-5.47,1.91A4.33,4.33,0,0,0,57,95.18c1.87-1,4.06-2.84,3.28-4.85-.64-1.63-3.09-1.82-4.26-.54a4.32,4.32,0,0,0-.25,4.88C58,98.6,65,97.55,66,93.14a5,5,0,0,0-6.26-.08c.08.85,1.38,1,1.94.35A3.46,3.46,0,0,0,62.18,91a1.86,1.86,0,0,0-2.61.14" transform="translate(-5.97 10.03)"/><path class="cls-2" d="M55,90.06c-2,4-.9,9.89,3.64,11.63,4.74,1.83,9.39-2.64,9.52-7.25s-3.86-9.76-9-8.58C54.29,87,53,93.39,56.44,96.78a.89.89,0,0,0,.92.16c2.83-1.64,6.18-5.49,3.21-8.7s-6.61.66-6.63,3.93C53.88,100,64.91,101.3,67,94a2.39,2.39,0,0,0-.49-2.49,6.14,6.14,0,0,0-7.47-.05c-.69.48-.65,1.86-.37,2.51,1.27,2.94,4.19,1.26,4.61-1.27.23-1.36.25-2.89-1-3.67a2.78,2.78,0,0,0-3.33.49c-1.16,1-.25,4.38,1.29,3.13l1.39-.12L61,91a1.56,1.56,0,0,0-.26,1.11l-.37,2.51a4.33,4.33,0,0,1,5.05.11l-.49-2.49c-.74,2.55-3.86,3.6-6.26,2.78-1.47-.5-3.76-3-1.33-4.11.52-.24,1.63-.26,1.8.43S57,93.21,56.64,93.43l.93.16c-2.8-2.77,2.55-4.76,4.72-4,2.36.8,4.3,3.63,3.12,6.06a5.23,5.23,0,0,1-5.74,2.65c-2.36-.59-4-3.38-2.88-5.67.67-1.34-.78-4.49-1.76-2.54Z" transform="translate(-5.97 10.03)"/><path class="cls-2" d="M76.15,127.79c8.32-8.27,20.36-12.73,31.26-16.51a168.38,168.38,0,0,1,35.87-8.12c1.63-.19,1.49-3.84-.09-3.65a171.1,171.1,0,0,0-36.5,8.26c-11.14,3.87-23.32,8.44-31.83,16.9-1.06,1-.1,4.5,1.29,3.12Z" transform="translate(-5.97 10.03)"/><path class="cls-3" d="M78.72,124a26,26,0,0,1,13.45,5.31c1.38,1.07,3.59,2.19,4.53.7a3.12,3.12,0,0,0,.28-1.92l-.6-9.79,6.36,4.67a4.42,4.42,0,0,0,2.29,1.08c2.29.13,3.28-3,3-5.36s-.78-5.13.91-6.73a35.63,35.63,0,0,0,6.72,6.15c1.47,1,3.74,1.84,4.81.37a3.93,3.93,0,0,0,.51-2.28l.14-8.93c2.27-.3,3.89,2.08,5.13,4.07s3.44,4.09,5.49,3c3.1-1.6,1.84-8.57,5.29-8.31,2.06.16,3.43,3.43,5.35,2.63a7.24,7.24,0,0,0,.78-5.18" transform="translate(-5.97 10.03)"/><path class="cls-2" d="M78.76,125.86a27.07,27.07,0,0,1,12.18,4.59c1.35.9,3.36,2.71,5.21,2,4.16-1.58,1.6-11.42,1.43-14.16l-1.77,1.62c2.58,1.9,7.76,7.87,11.31,5.22,4-2.94.36-8.48,2.75-11.88l-1.7,0c2.24,2.54,7.62,9.27,11.78,7.63,4-1.57,2.37-10.7,2.42-13.66l-1.15,1.86c4.37.39,5.42,8.93,10.61,7.1,2.45-.86,2.38-3.35,3.41-5.29,2.85-5.43,4.2,1.16,7.55-.45,2.15-1,1.8-5.63,1.56-7.45-.31-2.4-2.54-.88-2.29,1,.53,4-4.22-.1-5.79.28s-2.09,1.68-2.61,3c-.43,1-.45,2.28-.95,3.28-1.76,3.6-4.36,1-6-1.14s-2.77-3.72-5.59-4c-.88-.08-1.15,1.28-1.16,1.86,0,2.22.69,10.27-2.12,9.89s-6.31-4.58-8-6.54a1,1,0,0,0-1.69,0,8.4,8.4,0,0,0-1.44,5.85c.12,2.68-.9,5.33-4.16,4.25-1.85-.61-4-2.93-5.56-4.08-1.08-.8-1.83.69-1.77,1.62.15,2.37.9,5.5.48,7.83l.12,2-3-.4a23.35,23.35,0,0,1-2.85-1.93,28.32,28.32,0,0,0-11.21-3.61c-1.55-.19-1.55,3.45.09,3.65Z" transform="translate(-5.97 10.03)"/><path class="cls-2" d="M80.44,125.52a52.07,52.07,0,0,0,39.3,24.7,14.1,14.1,0,0,0,6.77-.67c4.28-1.82,6.31-6.76,7.91-11.23q5.63-15.73,11.26-31.46" transform="translate(-5.97 10.03)"/><path class="cls-2" d="M79.62,126.83c8.7,13.86,23.63,24,40.16,25.22,8.38.65,12.38-4.18,15.2-11.48,4.18-10.83,7.85-21.89,11.76-32.81.57-1.59-1.31-4.05-2.12-1.8l-9.27,25.91c-1.39,3.88-2.53,8.27-4.76,11.79-2.94,4.63-7.31,5.18-12.38,4.58-15.29-1.79-28.85-11.13-37-24-1.16-1.86-2.44,1.33-1.63,2.62Z" transform="translate(-5.97 10.03)"/><path class="cls-1" d="M113.1,131.36a39.92,39.92,0,0,1,26.63-6.72c9.1,1,17.59,5.12,26.53,7.15s19.4,1.5,25.75-5.28c3.75-4,5.51-9.6,9.07-13.78,8.22-9.64,25.11-8,32.54,2.32s5.1,26.14-4,34.92c-5.75,5.56-13.47,8.48-21.19,10.17a85.29,85.29,0,0,1-38.6-.5c-18.16-4.48-34.37-14.77-51.54-22.36-3.44-1.53-8.13-2.64-10.37.45" transform="translate(-5.97 10.03)"/><path class="cls-2" d="M113.46,133.12a40.38,40.38,0,0,1,31.39-5.78c9.88,2.22,19.18,7,29.46,7.31,7.73.19,15.25-2.25,20-8.59,5.7-7.62,8.18-16.5,19.06-17.74,9.11-1,18.32,3.76,21.82,12.39,3.78,9.32.87,20.75-6.21,27.7-7.71,7.56-19.34,10.27-29.73,11.39a85.43,85.43,0,0,1-34.19-3.33c-11.22-3.46-21.69-8.88-32.16-14.11-5.23-2.61-10.57-5.73-16.14-7.55-3.41-1.12-6.84-1.42-9.48,1.36-1,1.07,0,4.53,1.29,3.13,4.08-4.31,11.68.71,15.86,2.7,5.57,2.67,11.06,5.52,16.61,8.24,10.86,5.32,22,10.17,34,12.33,18.36,3.3,45.88,2.16,58.18-14.38,9.33-12.54,8.3-33.75-6.92-41.25-6.77-3.33-15.42-3.37-21.86.78-8.31,5.35-9.3,16.76-18.53,21.16-12.64,6-26.45-1.53-38.71-4.65-12-3-24-1.45-34.45,5.38-1.28.83-.67,4.42.73,3.51Z" transform="translate(-5.97 10.03)"/><path class="cls-2" d="M124,132.06c20.13-.79,36.26,13.22,55.49,16.61,13.73,2.41,29.24-2.46,34.4-16.48.58-1.59-1.29-4.05-2.12-1.8-6.17,16.77-26.53,17.14-40.81,12.37-15.65-5.23-29.95-15-47-14.35-1.62.06-1.53,3.71.09,3.65Z" transform="translate(-5.97 10.03)"/></svg>