<svg id="Layer_1" data-name="Layer 1" xmlns="http://www.w3.org/2000/svg" viewBox="0 0 171.87 163.69"><defs><style>.cls-1{fill:#b21f29;}.cls-2{fill:#252a26;}.cls-3{fill:#fff;}</style></defs><title>nica-logo</title><path class="cls-1" d="M30.42,74.47,19.12,97.41c-1.13,2.31-2.3,4.72-2.28,7.3s1.12,4.82,2.29,7c18.08,33.81,54.29,53.14,88.47,70.52a7.55,7.55,0,0,0,3.71,1.13c2.77-.14,4.42-3.08,5.5-5.64a547.75,547.75,0,0,0,24-68.87c1.59-5.74,3.09-11.65,2.57-17.58-1.36-15.34-15.44-26.15-29-33.49C96,47.77,73.83,40.31,54.24,47.88c-19,7.34-30.19,26.56-39.55,44.61" transform="translate(-14.69 -19.69)"/><path class="cls-1" d="M24.56,75.51c-3.13,4.18-4.13,9.52-5,14.66l-3.57,20" transform="translate(-14.69 -19.69)"/><path class="cls-2" d="M43.7,51.29A27,27,0,0,1,31.84,37.16l6.84,3.78a2,2,0,0,0,1.6.36c.66-.26.84-1.1.92-1.8.61-5.54,1-11.11,1-16.68L48,34.21c.73,1.44,1.78,3.09,3.4,3.07,1.41,0,2.41-1.31,3.19-2.48L63.75,21l1.81,11.39c.26,1.67.78,3.66,2.4,4.17,3.32,1.07,4.82-5.19,8.3-5.42a28.85,28.85,0,0,1-2.53,13" transform="translate(-14.69 -19.69)"/><path class="cls-2" d="M44.13,50.09A27.37,27.37,0,0,1,32.6,36.45l-1,2C34,39.83,39.55,45,41.76,41.24c1.17-2,.83-6.59,1-8.8.22-3.21.34-6.42.41-9.64l-1.67.73c2,3.88,3.74,7.9,5.89,11.67.89,1.54,2,3.46,4.05,3.46,2.35,0,3.76-2.85,4.84-4.43,2.77-4,5.44-8.15,8.15-12.23l-1.53-.57c.63,4,1,8.12,1.94,12,.41,1.69,1,3.6,2.71,4.35,3.85,1.63,5.56-4.54,8.76-5.25l-.94-1.36a30.25,30.25,0,0,1-2.42,12.31c-.5,1.19.9,3,1.59,1.36a33.6,33.6,0,0,0,2.64-13.71c0-.42-.31-1.5-.94-1.36-2.57.57-3.51,2.4-5.33,4.15-4.49,4.35-5.83-10.51-6.28-13.29-.12-.8-1-1.4-1.53-.57L59,26.2c-1.34,2-2.78,5.34-4.58,6.87-.47,1.14-1.43,1.47-2.86,1q-2.49,1.35-3-1a21.1,21.1,0,0,1-1.87-3.67L43,22.1c-.65-1.28-1.65-.33-1.67.74-.1,4.52-.32,9-.74,13.54-.23,2.43,0,3.39-2.57,2.75-2-.48-4.21-2.32-6-3.3-1-.58-1.17,1.54-1,2.05a29.14,29.14,0,0,0,12.2,14.61c1.28.78,1.82-1.81.85-2.4Z" transform="translate(-14.69 -19.69)"/><path class="cls-2" d="M37.39,81.73A13.11,13.11,0,0,0,37,89c.4,1.78,2.06.67,1.73-.77a9.11,9.11,0,0,1,.3-5.17,1.78,1.78,0,0,0-.38-1.88c-.51-.39-1,0-1.22.53Z" transform="translate(-14.69 -19.69)"/><path class="cls-2" d="M40.65,107.43l6.61,8.69c1,1.33,1.94-1.06,1.23-2l-6.61-8.69c-1-1.33-1.94,1-1.23,2Z" transform="translate(-14.69 -19.69)"/><path class="cls-2" d="M60,136.83l3,6c.8,1.61,2.1-.28,1.52-1.43l-2.94-6c-.8-1.62-2.1.27-1.53,1.43Z" transform="translate(-14.69 -19.69)"/><path class="cls-2" d="M96.21,171.68a8.63,8.63,0,0,0,3.89,3.2c1.21.5,1.49-2.23.41-2.67a6.74,6.74,0,0,1-3.07-2.51.73.73,0,0,0-1.28,0,1.92,1.92,0,0,0,0,2Z" transform="translate(-14.69 -19.69)"/><path class="cls-2" d="M115.36,174.22a11.43,11.43,0,0,1-.58-11c.54-1.18-.85-3-1.6-1.35a15.19,15.19,0,0,0,.95,14.37c.86,1.4,1.83-1,1.23-2Z" transform="translate(-14.69 -19.69)"/><path class="cls-2" d="M124.81,143.26l.6-3.81c.09-.56-.06-1.46-.67-1.68s-1,.49-1.09,1l-.61,3.81c-.09.56.06,1.46.68,1.68s1-.49,1.09-1Z" transform="translate(-14.69 -19.69)"/><path class="cls-2" d="M127.26,108.86a43.6,43.6,0,0,0-2.14-15c-.56-1.71-1.92.24-1.53,1.43a39.74,39.74,0,0,1,1.86,13.57c0,1.71,1.76,1.64,1.81,0Z" transform="translate(-14.69 -19.69)"/><path class="cls-2" d="M96.87,68.54a28,28,0,0,0-7.24-5.15c-1.15-.58-1.46,2.15-.42,2.67A26.26,26.26,0,0,1,96,71c1,1,1.66-1.62.86-2.41Z" transform="translate(-14.69 -19.69)"/><path class="cls-2" d="M55.21,57.52a19.54,19.54,0,0,0,.23,9.37c.48,1.75,2.12.66,1.73-.78a16.25,16.25,0,0,1-.2-7.9c.32-1.45-1.37-2.47-1.76-.69Z" transform="translate(-14.69 -19.69)"/><path class="cls-2" d="M69.29,87.12l-1.45,9.16c-.23,1.45,1.47,2.49,1.76.69l1.45-9.16c.23-1.45-1.47-2.49-1.76-.69Z" transform="translate(-14.69 -19.69)"/><path class="cls-2" d="M78.68,125l5.65,8.72c.9,1.39,1.86-1,1.23-2l-5.65-8.72c-.9-1.39-1.86,1-1.23,2Z" transform="translate(-14.69 -19.69)"/><path class="cls-2" d="M108.83,145.42l1.57-9.92c.23-1.45-1.48-2.5-1.76-.69l-1.58,9.92c-.23,1.45,1.48,2.49,1.77.69Z" transform="translate(-14.69 -19.69)"/><path class="cls-2" d="M99.7,99a13.15,13.15,0,0,0,.43-7.3c-.4-1.78-2-.67-1.73.78a9.11,9.11,0,0,1-.3,5.17,1.8,1.8,0,0,0,.38,1.88c.51.38,1,0,1.22-.53Z" transform="translate(-14.69 -19.69)"/><path class="cls-2" d="M112.57,66.7a9.27,9.27,0,0,0-5.44-5.2c-1.26-.44-1.52,2.28-.42,2.67a7.18,7.18,0,0,1,4.33,4c.22.52.75.87,1.25.46a1.78,1.78,0,0,0,.28-1.89Z" transform="translate(-14.69 -19.69)"/><path class="cls-2" d="M54.65,98.15c2.64.34,3.13-5.06.63-5.54-.63-.12-1,.4-1.09,1s.05,1.56.68,1.68c0,0,.41.11.22,0,.08,0,0,.06,0-.07,0,.13,0,.11,0-.06,0,.15,0,.12,0-.08a1.27,1.27,0,0,1,0,.2c0-.2,0-.23,0-.07,0-.39-.08.25,0-.06l-.1.17c.08-.1.08-.11,0,0s-.09.08,0,0l-.17.07c.17,0-.2,0-.23,0-.64-.08-.89,1-.87,1.4a1.26,1.26,0,0,0,.93,1.36Z" transform="translate(-14.69 -19.69)"/><path class="cls-2" d="M103.27,82.22c-1.29,2.94,3,6.14,4.78,3.08,1.67-2.86-1.26-7.08-4.53-5.73a4,4,0,0,0-2.35,4.35,3.44,3.44,0,0,0,3.35,3c3.22-.23,3-5.66.42-6.68-3.51-1.39-5.18,4.31-3,6.43a3.64,3.64,0,0,0,4.16.56,4.31,4.31,0,0,0,2-4.15c-.08-1.28-.92-4-2.59-3.72-1.46.21-2.24,1.8-2.35,3.13-.13,1.52.6,3.23,2.25,3.5a3.3,3.3,0,0,0,3.48-2.25c1.35-3.92-4.32-7-6.1-2.89a4.6,4.6,0,0,0,1,5.26,3.9,3.9,0,0,0,5.1-.34c.82-.78.1-3.38-1-2.36-.84.79-3.89,1.31-3.73-.66.14-1.8,3.29-1.15,3-.15-.18.6-1.37.79-1.86.59s-.43-.84.13-1,.93.84.84,1.39a1.75,1.75,0,0,1-1.72,1.31c-.51,0-1.63-.11-1.81-.73s.63-1.24,1.2-1.31c1.61-.19,1.37,2-.31,1.15-1-.52-.59-1.26.28-1.69a2,2,0,0,1,2.28.27c.44.4.8.94.06,1.18a1.33,1.33,0,0,1-.88-.1,1.39,1.39,0,0,1-.44-.26c-.19-.25-.21-.19,0,.19.52-1.18-.87-3-1.6-1.35Z" transform="translate(-14.69 -19.69)"/><path class="cls-3" d="M52.23,94.2a4.62,4.62,0,0,0,1.29,6.68A4.82,4.82,0,0,0,60,98.59a5.05,5.05,0,0,0-2.78-6.39,4.24,4.24,0,0,0-4.36.75,3.16,3.16,0,0,0-.26,4.22c1.53-.52,3.4-1.6,3-3.18a2,2,0,0,0-3.15-.9,3.14,3.14,0,0,0-.77,3.55c1.21,3.15,6.61,3.22,7.89.1a4,4,0,0,0-4.72-.81c0,.63.93.89,1.43.49A2.56,2.56,0,0,0,57,94.69a1.45,1.45,0,0,0-2-.2" transform="translate(-14.69 -19.69)"/><path class="cls-2" d="M51.57,93.24c-2,2.72-1.36,7.32,1.74,9s7.08-.6,7.79-3.94-1.5-7.56-5.27-7.74c-4-.19-6.18,4.52-3.84,7.62a.75.75,0,0,0,.89.33c2.36-.87,5.19-3.52,3-6.15-1.91-2.35-4.8-.38-5.24,2a5,5,0,0,0,3.49,5.84,5.17,5.17,0,0,0,6.12-2.5,1.87,1.87,0,0,0-.24-2.16,4.71,4.71,0,0,0-5.42-.94c-.6.28-.71,1.16-.59,1.72.44,2.09,2.68,2.08,3.49.21a3,3,0,0,0,0-2.94,2.15,2.15,0,0,0-2.78-.43c-1,.57-.57,3.28.55,2.65a.86.86,0,0,1,1.28.08l-.45-1.54c-.07.5-.46.73-.37,1.19l-.59,1.71a3.41,3.41,0,0,1,4,.69L59,95.78a3.87,3.87,0,0,1-5.38,1.35c-1.14-.67-1.89-2.83,0-3.06.9-.11,1.08.27.57.87a4.84,4.84,0,0,1-1.85.9l.89.34c-1.84-2.44,2.68-3.28,4.22-2.46,1.72.93,2.68,3.26,1.31,4.87a4.18,4.18,0,0,1-4.63,1.14,3,3,0,0,1-1.22-4.57c.69-.94-.33-3.26-1.33-1.92Z" transform="translate(-14.69 -19.69)"/><path class="cls-1" d="M63,122.19c3.8-2.82,8.38-4.38,13-5.64A130.1,130.1,0,0,1,117.07,112" transform="translate(-14.69 -19.69)"/><path class="cls-2" d="M63.46,123.37c7.53-5.2,17.5-7,26.34-8.46a134.91,134.91,0,0,1,27.31-1.51c1.2,0,1.17-2.71-.07-2.76a134,134,0,0,0-31,2.17c-8.13,1.56-16.62,3.43-23.52,8.2-.93.64-.27,3.22,1,2.36Z" transform="translate(-14.69 -19.69)"/><path class="cls-3" d="M65.66,121a20,20,0,0,1,9.55,5.51c.92,1,2.46,2,3.35,1.06a2.36,2.36,0,0,0,.44-1.38l.68-7.26,4.26,4.19a3.52,3.52,0,0,0,1.61,1.07c1.71.37,2.82-1.82,2.92-3.57s0-3.86,1.48-4.84a26.89,26.89,0,0,0,4.36,5.32c1,.94,2.61,1.8,3.59.85a2.87,2.87,0,0,0,.66-1.61l1.14-6.54c1.75,0,2.7,2,3.4,3.6s2.13,3.42,3.8,2.89c2.53-.8,2.39-6.08,5-5.47,1.54.36,2.19,2.94,3.73,2.58a5.23,5.23,0,0,0,1.2-3.71" transform="translate(-14.69 -19.69)"/><path class="cls-2" d="M65.46,122.3a22.16,22.16,0,0,1,8.17,4.27c1,.82,2.48,2.84,4,2.68,3.45-.35,2.71-7.88,2.91-10l-1.31.86c1.87,1.83,5.21,7.06,8.31,4.79a4.3,4.3,0,0,0,1.33-2c.26-.64.27-1.28.47-1.93l0-.36q.28-3.81,1.44-1.71c2.17.9,4,6.68,7.36,4.39,2.22-1.52,2-6.9,2.41-9.14l-1.09,1c3,.9,4.29,9.08,8.64,5.92,1.13-.82,1.54-3.85,2.52-4.3s3.64,1.87,5,2c.25,0,.51-.24.63-.42a8.63,8.63,0,0,0,1.43-4.7c.1-1.7-1.71-1.62-1.81,0-.18,3.32-3.32-.19-4-.27-1.08-.11-1.56.38-2.26,1.08-.38.39-.46,1-.81,1.39-.23,1.15-1,1.58-2.4,1.3-1.82,1-2.84.44-3.08-1.76-1-1.59-1.58-2.44-3.38-3-.63-.19-1,.46-1.09,1-.18,1-.37,6-1.15,6.54-2.92,2.2-5.9-3.41-7.11-5.2a.71.71,0,0,0-1.1-.19c-1.16,1.29-1.13,2.09-1.72,3.64s1.94,4-3.37,3.68c-1-.07-3.61-3.55-4.26-4.2s-1.26.31-1.31.86c-.09.94,0,4.68-.52,5.45-2,3-3.53.31-5-.83a22.26,22.26,0,0,0-7.38-3.53c-1.29-.38-1.52,2.34-.41,2.67Z" transform="translate(-14.69 -19.69)"/><path class="cls-2" d="M66.79,122.26a40,40,0,0,0,26.83,22.85,11.07,11.07,0,0,0,5.2.32c3.45-.82,5.55-4.21,7.28-7.3l12.18-21.76" transform="translate(-14.69 -19.69)"/><path class="cls-2" d="M66,123c5.09,11.38,15.1,20.55,27.38,23.48,6,1.44,9.63-1.14,12.69-6.19,4.52-7.49,8.57-15.3,12.84-22.93.56-1-.52-3.36-1.32-1.92L107.78,133a74.32,74.32,0,0,1-4.11,7.07c-3,4.14-6.51,4.61-11.25,3.34-11.09-3-20.24-11.52-24.87-21.86-.73-1.65-2,.26-1.52,1.43Z" transform="translate(-14.69 -19.69)"/><path class="cls-1" d="M90.8,130.46a31.19,31.19,0,0,1,20.91-1.74c6.77,1.82,12.7,5.86,19.22,8.43s14.49,3.43,20.09-.79c3.3-2.49,5.27-6.4,8.45-9,7.34-6.09,19.91-2.84,24.33,5.61s.81,19.8-7.08,25.17c-5,3.4-11.16,4.61-17.19,4.93a67,67,0,0,1-29.12-5c-13.21-5.47-24.27-15-36.36-22.61-2.42-1.53-5.84-2.91-7.89-.91" transform="translate(-14.69 -19.69)"/><path class="cls-2" d="M91.07,131.79a31.64,31.64,0,0,1,24.57-.33c7,2.78,13.4,7.3,20.94,8.73,5.42,1,11.16.48,15.51-3.15,5.56-4.64,8.12-11.38,16.41-11.48,7.08-.09,14.11,4.48,15.85,11.53,2.06,8.33-2.77,16.95-10,20.94-13.9,7.68-34.16,3.43-47.62-3.09-8.17-4-15.54-9.31-23-14.48-4.23-2.94-12.35-10.85-17.88-7.26-1,.63-.51,3.33.55,2.65,4.54-2.95,10.73,3.05,14.35,5.54,3.78,2.6,7.5,5.28,11.31,7.84,7,4.67,14.23,9,22.21,11.68,13.58,4.59,35,7.21,46-4.27,7.77-8.08,9-22.75-.49-30A18.08,18.08,0,0,0,164,123.47c-7.55,2.29-9.81,11.1-17.15,13.61-10.61,3.64-20.72-4.11-30-8a33.26,33.26,0,0,0-26.34,0c-1.06.45-.68,3.17.55,2.65Z" transform="translate(-14.69 -19.69)"/><path class="cls-2" d="M99.13,132.31c15.36,1.91,26,14.36,40.29,19,9.82,3.17,21.81,1.6,27.4-8,.58-1-.49-3.35-1.33-1.91-7.09,12.15-22.82,9.38-33.27,3.91-11-5.75-20.43-14.17-33.15-15.76-1.17-.14-1.17,2.6.06,2.76Z" transform="translate(-14.69 -19.69)"/></svg>