<svg id="Layer_1" data-name="Layer 1" xmlns="http://www.w3.org/2000/svg" viewBox="0 0 141.05 195.83"><defs><style>.cls-1{fill:#b21f29;}.cls-2{fill:#231f20;}.cls-3{fill:#fff;}</style></defs><title>nica-logo-dizzy</title><path class="cls-1" d="M61.39,51.61,40.14,70.15C38,72,35.79,74,34.71,76.6s-.91,5.38-.65,8.11c4,42.09,32.64,77.16,60,109.39a8.33,8.33,0,0,0,3.29,2.73c2.88,1,5.8-1.26,8-3.4a606.25,606.25,0,0,0,53.76-59.84c4.05-5.17,8.1-10.55,10.09-16.81,5.14-16.18-4.59-33.17-15.23-46.4-14.53-18-33.89-35.06-57.05-35.69-22.42-.6-42,14.18-59.22,28.57" transform="translate(-30.55 -2.62)"/><path class="cls-1" d="M60.86,50.31c-7.09,6.17-14.22,12.3-21.26,18.54-5.22,4.62-7.15,8.86-6.54,15.89,1.33,15.36,6.27,30.32,13,44.09,7.13,14.48,16.3,27.86,26.15,40.6,5.11,6.61,10.42,13.06,15.79,19.45,3.41,4,7.56,11.91,13.88,8.9,3.37-1.61,6.06-5.07,8.64-7.65q5-4.95,9.84-10,9.72-10.14,19-20.71,8.72-10,17-20.35c4.95-6.19,10.36-12.47,13.19-20,5.22-13.86-.36-28.53-8-40.31C153.3,66,142.29,53.89,129.81,45.12c-13.54-9.51-29.56-14.34-46-10.6C66,38.58,51,50.47,37.19,62c-1,.79-.2,3.65,1.07,2.6,21.57-18,47.8-36.23,76.84-24.41,12.65,5.15,23.29,14.39,32.35,24.43,9.93,11,20.54,24.55,22,39.82,1.59,16.61-12.25,29.95-22.05,41.71q-15.28,18.34-32,35.44-3.93,4-7.92,8c-1.26,1.23-2.47,2.57-3.83,3.69-3.6,3-6.11,2.43-9.46-.82-5.06-4.93-9.39-11.12-13.84-16.61A319.47,319.47,0,0,1,56,142C47.47,128.14,40.5,113.15,37,97.18a99.53,99.53,0,0,1-2-12.49c-.55-6.35,1.89-10,6.32-13.86q10.26-9,20.55-17.92c.94-.82.17-3.68-1.07-2.6Z" transform="translate(-30.55 -2.62)"/><path class="cls-1" d="M54.68,48.72c-4.92,3.18-8.21,7.65-11.37,12.51-4.21,6.46-8.37,13-12.55,19.45-.69,1.07.47,3.66,1.47,2.11l10.6-16.44c3.52-5.46,6.88-11.11,12.46-14.71,1.07-.69.56-3.68-.61-2.92Z" transform="translate(-30.55 -2.62)"/><path class="cls-2" d="M84.77,33.67a29.7,29.7,0,0,1-6.06-19.41L84.06,21a2.16,2.16,0,0,0,1.48,1c.78,0,1.32-.75,1.7-1.44q4.45-8.05,8.15-16.52l1,14c.12,1.77.5,3.91,2.15,4.57,1.44.59,3-.31,4.31-1.17L118,11.43l-3,12.35c-.44,1.82-.76,4.06.66,5.27,2.94,2.5,7.12-3.24,10.76-2a31.78,31.78,0,0,1-8.11,12.16" transform="translate(-30.55 -2.62)"/><path class="cls-2" d="M85.45,32.58a29.33,29.33,0,0,1-5.74-18.35L78,15.35c1.78,2.25,5.37,9.74,9,7.55,2-1.21,3.29-5.68,4.34-7.75,1.71-3.39,3.32-6.84,4.86-10.32L94.4,4.11c.33,4.67.51,9.38,1,14,.21,2,.45,4.38,2.25,5.6,2.65,1.79,5.62-.84,7.78-2.27l12.9-8.58-1.27-1.84c-1,4.09-2.27,8.21-3,12.35-.38,2.1-.79,4.37.57,6.2,3.16,4.24,8-1.7,11.86-1l-.92-2.26a33,33,0,0,1-7.77,11.6c-.88.87-.09,3.74,1.07,2.6a36.32,36.32,0,0,0,8.46-12.71c.33-.82,0-2.1-.92-2.27C123.23,25,121,28.27,118.19,28c-4.38-.47.08-13.14.81-16.16.14-.54-.35-2.45-1.27-1.84l-7.59,5c-2.24,1.48-5,4.14-7.59,5l-1.37.82L97.4,18.09c-.46-.78-.24-3.37-.32-4.38l-.69-9.65c-.08-1.17-1.23-2.18-1.88-.72-1.94,4.39-4,8.73-6.25,13-1.23,2.33-1.33,4.51-4.59,2.26-1.62-1.12-3.06-3.86-4.28-5.41-.86-1.08-1.66.21-1.68,1.12a33.1,33.1,0,0,0,6.38,20.49c1.08,1.49,2.11-1.15,1.36-2.19Z" transform="translate(-30.55 -2.62)"/><path class="cls-2" d="M65.38,61.69a13.91,13.91,0,0,0-3.45,7.1c-.1.6.07,1.63.74,1.86s1.11-.53,1.21-1.1a10.28,10.28,0,0,1,2.58-5.26,2,2,0,0,0,.3-2.09c-.21-.5-.87-1.07-1.38-.51Z" transform="translate(-30.55 -2.62)"/><path class="cls-2" d="M57.88,89.18l3,11.65c.5,1.94,2.31.74,1.9-.85l-3-11.66c-.5-1.94-2.32-.73-1.9.86Z" transform="translate(-30.55 -2.62)"/><path class="cls-2" d="M65,127.26l.47,7.31c.12,1.85,2.11,1.83,2,0L67,127.21c-.12-1.85-2.12-1.83-2,.05Z" transform="translate(-30.55 -2.62)"/><path class="cls-2" d="M87.08,178.19a10.12,10.12,0,0,0,2.8,5.28c.52.53,1.16-.07,1.35-.58a2,2,0,0,0-.41-2.07A6.7,6.7,0,0,1,89,177.33c-.11-.57-.58-1.29-1.25-1s-.77,1.31-.65,1.89Z" transform="translate(-30.55 -2.62)"/><path class="cls-2" d="M105.29,189.56A12.77,12.77,0,0,1,109.5,178c.91-.84.13-3.7-1.08-2.6a16.51,16.51,0,0,0-5,15c.32,2,2.16.73,1.91-.86Z" transform="translate(-30.55 -2.62)"/><path class="cls-2" d="M128.15,162.09l2.24-3.62a2.05,2.05,0,0,0-.06-2.15.8.8,0,0,0-1.41,0L126.68,160a2.08,2.08,0,0,0,.06,2.15.8.8,0,0,0,1.41,0Z" transform="translate(-30.55 -2.62)"/><path class="cls-2" d="M145.25,128.18a46.93,46.93,0,0,0,4.12-15.74c.13-1.59-1.78-2.77-1.94-.76a44.7,44.7,0,0,1-3.94,15c-.59,1.3.93,3.3,1.76,1.49Z" transform="translate(-30.55 -2.62)"/><path class="cls-2" d="M131.42,74.1a31.19,31.19,0,0,0-5.17-8.4c-1.2-1.4-2.2,1.2-1.36,2.18a28.89,28.89,0,0,1,4.85,7.8c.76,1.84,2.23-.28,1.68-1.58Z" transform="translate(-30.55 -2.62)"/><path class="cls-2" d="M93.84,44.58a21.17,21.17,0,0,0-3.69,9.55c-.2,1.6,1.69,2.77,1.95.76a17.91,17.91,0,0,1,3.21-8.2c.74-1-.4-3.62-1.47-2.11Z" transform="translate(-30.55 -2.62)"/><path class="cls-2" d="M95.58,80.69l-5.37,8.69c-.67,1.09.5,3.68,1.46,2.12L97,82.81c.67-1.09-.5-3.68-1.46-2.12Z" transform="translate(-30.55 -2.62)"/><path class="cls-2" d="M89.08,123.27l2,11.27c.36,2,2.2.74,1.91-.85l-2-11.28c-.36-2-2.2-.74-1.91.86Z" transform="translate(-30.55 -2.62)"/><path class="cls-2" d="M111,157.48l5.82-9.41c.67-1.09-.5-3.68-1.46-2.12l-5.82,9.42c-.67,1.08.5,3.68,1.46,2.11Z" transform="translate(-30.55 -2.62)"/><path class="cls-2" d="M121.48,106.27a14,14,0,0,0,3.46-7.11c.28-1.61-1.6-2.75-1.94-.76a10.38,10.38,0,0,1-2.59,5.26,2,2,0,0,0-.31,2.09c.22.5.88,1.07,1.38.52Z" transform="translate(-30.55 -2.62)"/><path class="cls-2" d="M148.2,79a10.86,10.86,0,0,0-3.55-8c-1.19-1.09-1.86,1.81-.94,2.65a7.31,7.31,0,0,1,2.49,5.43c0,1.87,2,1.83,2,0Z" transform="translate(-30.55 -2.62)"/><path class="cls-2" d="M76.3,86.07c1.14.66,2.38-.24,2.94-1.24.7-1.27.78-3.35-.58-4.24s-2,2-.94,2.65a1.77,1.77,0,0,0,.17.12c-.09,0,0-.13,0,0a2.59,2.59,0,0,1-.14-.42c0-.31,0,.18,0-.12,0-.12,0-.14,0,0s0,.06,0,0,0-.09,0,.07.11-.19,0,0a1.7,1.7,0,0,1-.15.22c.13-.18-.09.09-.15.14s-.11.07,0,0l-.18.08c-.08,0-.11,0,0,0H77c-.15,0,.12,0,0,0a1.79,1.79,0,0,1-.24-.12c-.64-.37-1.13.63-1.2,1.09a1.78,1.78,0,0,0,.74,1.86Z" transform="translate(-30.55 -2.62)"/><path class="cls-3" d="M132.75,91.52c-1.55,1.22.77,4,2.49,3.06s1.28-3.92-.46-4.86A3.18,3.18,0,0,0,130.52,91a2.54,2.54,0,0,0,2.2,3.5c1.93-.13,2.59-3.27.94-4.29s-4.1.68-3.89,2.6a3.16,3.16,0,0,0,4.39,2.28,3.71,3.71,0,0,0,1.39-5c-1.64-.78-3.67,1.43-2.83,3s3.66,1.42,4.36-.26a2.8,2.8,0,0,0-2.78-3.62,3.11,3.11,0,0,0-2.42,4.06,3.5,3.5,0,0,0,4.55,1.79" transform="translate(-30.55 -2.62)"/><path class="cls-2" d="M132.21,90.21c-2.36,2.29.45,7.75,3.56,5.67s1.45-7.59-2-8c-4.15-.5-6,5.11-2.77,7.52,3.42,2.59,5.66-3.16,4-5.7A3,3,0,0,0,130.6,89,4.34,4.34,0,0,0,129,93.9a4,4,0,0,0,7.66,0c.51-1.39.71-4.34-.74-5.3s-3.35.49-4,1.82a3.81,3.81,0,0,0,1,4.72,3.43,3.43,0,0,0,4.31-.52c3.15-3.34-1.89-9.58-5.34-5.74-3.1,3.46.21,9.33,4.79,7.6,1.2-.46.79-3.45-.6-2.92-1,.36-3.12.24-3.4-1.1s1.8-2.1,2.78-1.47c1.33.84.26,1.74-.92,1.65-1.92-.16-.34-1.56.73-1.17l-.61-.68c1.08,2.16-1.65,3.84-3.41,2.42-1-.81,0-1.74,1.06-1.86.78-.08,1.69.48,1,1.23s-2.12.14-1.94-.79,2.15-1.08,2.85-.79,1.43,1.12,1,1.83a1,1,0,0,1-1.25.25c-.19-.09-.3-.26-.47-.36-.53-.31.21-.33-.17,0,.89-.86.09-3.73-1.08-2.61Z" transform="translate(-30.55 -2.62)"/><path class="cls-3" d="M75.19,81a5.09,5.09,0,0,0-1.53,7.34,5.32,5.32,0,0,0,7.58.43,5.56,5.56,0,0,0-.11-7.68A4.64,4.64,0,0,0,76.38,80a3.47,3.47,0,0,0-2.07,4.17c1.78.13,4.15-.18,4.45-1.93.24-1.42-1.44-2.64-2.82-2.27a3.46,3.46,0,0,0-2.29,3.3c-.11,3.72,5.35,6.08,8,3.45a4.36,4.36,0,0,0-4.46-2.83c-.3.63.57,1.3,1.25,1.1a2.76,2.76,0,0,0,1.43-1.46,1.61,1.61,0,0,0-1.94-1.06" transform="translate(-30.55 -2.62)"/><path class="cls-2" d="M74.89,79.51a7,7,0,0,0-2.15,9.55,6,6,0,0,0,9.67.23C84.65,86.19,84,81.1,80.66,79a4.87,4.87,0,0,0-7.3,5.54c.13.5.4,1.07,1,1.09,2.82.14,6.25-1.2,5.29-4.7-.9-3.3-4.85-3.2-6.32-.4-2.79,5.32,4.16,11.65,8.85,7.43a2,2,0,0,0,.31-2.09,5.47,5.47,0,0,0-5.35-3.56c-.55,0-.87.66-.93,1.14C75.85,86,78.29,87.55,80,85.4c1.45-1.8.5-4.87-2.15-4.48-1.35.2-1.22,3.24.08,3a.89.89,0,0,1,1,.33l.11-1.85a5.52,5.52,0,0,0-1,1.8l-.93,1.14a3.5,3.5,0,0,1,3.58,2.1l.31-2.09a4.27,4.27,0,0,1-6.2-1.14c-.76-1.41.76-3.53,2.33-2.65.51.29.59.19.11.59a2.21,2.21,0,0,1-.75.29,7.46,7.46,0,0,1-2.31.14l1,1.1c-.82-3.07,4-2.72,5.39-1.33a3.58,3.58,0,0,1-.54,5.51,4.62,4.62,0,0,1-5.57-.48,3.22,3.22,0,0,1,.94-5c1.11-.65.62-3.64-.6-2.92Z" transform="translate(-30.55 -2.62)"/><path class="cls-2" d="M77.15,103.63c3.28,2.63,5,5.52,7,9.13.59,1.08,1.24,2.94,2.63,3.25,3.43.76,5.64-6.76,6.72-8.79L91.93,107c1,2.3,2.19,8.58,5.47,8.9,4,.4,4.55-5.86,7.46-7.06l-1.26-1c.51,2.64,1.7,10.41,5.44,10.81,1.57.16,2.17-.82,3.07-1.89.33-.39,2.41-4.65,3-4.62,1.94.08,1.06,2.7,1.31,3.93.56,2.8,2.23,5.7,5.47,4.17,1.62-.76,3.43-4.08,5.52-2.21,1.23,1.09.57,2.53,2.37,3.41a.76.76,0,0,0,.77-.17,8,8,0,0,0,3-3.51c.54-1.12-.68-3.74-1.47-2.12-2.45,5.06-2.34.09-4.29-1.21-1.14-.76-2-.52-3.09.07-.78.41-1.34,1.5-2.12,1.81-2.77,1.11-3.67-1.08-4.37-3.28s-.47-3.4-2.36-4.82a.79.79,0,0,0-1.2.27c-1.22,1.89-3,6.29-5.28,6.15-2.8-.16-3.33-5.14-3.81-7.65-.11-.56-.59-1.31-1.26-1-2,.83-2.14,2.13-3.47,3.62-4.85,5.41-5.79-.83-7.17-4.12-.28-.66-1.14-1.08-1.57-.27-.85,1.6-1.74,4.44-3,5.68-.42,1.93-1.48,2.06-3.17.41a20.2,20.2,0,0,0-1.32-2.78A24.88,24.88,0,0,0,78.1,101c-1.28-1-1.92,1.87-.95,2.65Z" transform="translate(-30.55 -2.62)"/></svg>