<svg id="Layer_3" data-name="Layer 3" xmlns="http://www.w3.org/2000/svg" viewBox="0 0 350.28 628.79"><defs><style>.cls-1{fill:#b21f29;}.cls-2{fill:#231f20;}.cls-3{fill:#e8e5d1;}.cls-4{fill:#111719;}</style></defs><title>nica</title><path class="cls-1" d="M339.17,527.33l-13.6,43.94c-1.37,4.42-2.75,9-2,13.6s3.35,8.26,6.05,11.82c41.64,55,111.42,79.08,177,100.32,2.24.72,4.61,1.45,6.91,1,4.89-1,7-6.73,8.19-11.58A987.78,987.78,0,0,0,545,557.3c1.19-10.65,2.2-21.57-.41-32-6.74-26.87-34.79-42.09-60.9-51.32-35.62-12.6-77.07-19.6-109.74-.62-31.62,18.38-46.13,55.68-57.67,90.38" transform="translate(-285.4 -71.46)"/><path class="cls-1" d="M337.73,526.11c-4.87,15.74-10.25,31.41-14.59,47.29-1.45,5.3-2.07,10.72-.08,16,2.15,5.67,6.41,10.52,10.23,15.13,15.47,18.65,34.54,33.83,55.26,46.28,21.77,13.08,45.19,23.18,69,32,11.74,4.35,23.59,8.38,35.48,12.3,9.06,3,22,10.42,27.82-.85,2.62-5,3.49-11.13,4.8-16.58q2.93-12.21,5.54-24.48,4.82-22.67,8.58-45.53,3.84-23.34,6.54-46.84c1.57-13.59,3.07-27.55-1.47-40.76-7.32-21.29-27.71-34.57-47.38-43.19-23-10.06-48.66-17.12-73.85-17.61-28.53-.55-55,9.75-73.58,31.77-17.31,20.52-26.74,46.42-35.12,71.56-.72,2.16,1.84,5.51,2.87,2.43,7-21.06,14.69-42.37,27.28-60.85,13.53-19.84,33-34,56.9-38.32,24.34-4.37,49.52.31,72.79,7.7,20.62,6.54,42.78,15.38,57.34,32.09a50.58,50.58,0,0,1,12.56,32.81c.3,14.33-2.34,29-4.3,43.15q-5.82,42.07-15.24,83.54c-1.43,6.28-2.9,12.55-4.46,18.79-.79,3.14-1.57,7.14-3.92,9.56-3.22,3.31-7.29,1.9-11.16.66-10.87-3.5-21.72-7.09-32.51-10.86-21.63-7.54-43-15.86-63.51-26.18-22.54-11.36-44-25.3-62-43.08a175.58,175.58,0,0,1-13.48-14.86c-5.84-7.23-10.6-13.52-8-23.31,4.17-15.91,9.73-31.58,14.6-47.29.66-2.16-1.92-5.54-2.88-2.44Z" transform="translate(-285.4 -71.46)"/><path class="cls-1" d="M327.86,529.12c-4.4,8.93-5,18.58-5.25,28.39-.27,12.43-.49,24.86-.73,37.29-.06,3.06,3.2,3,3.26-.08l.61-31.66c.21-10.27-.16-21,4.5-30.49.89-1.82-1.09-6.09-2.39-3.45Z" transform="translate(-285.4 -71.46)"/><path class="cls-2" d="M356.23,482.42a48.59,48.59,0,0,1-25.05-21.75l13.2,4.79a3.6,3.6,0,0,0,2.95.17c1.11-.63,1.19-2.17,1.13-3.45q-.72-15-2.85-29.92L359,450.87c1.7,2.35,4,5,6.9,4.51,2.5-.43,3.92-3,5-5.32q6.21-13.51,12.41-27l6.42,19.71c.95,2.9,2.43,6.28,5.44,6.74,6.21.95,7.09-10.59,13.22-12a51.89,51.89,0,0,1-.83,23.83" transform="translate(-285.4 -71.46)"/><path class="cls-2" d="M356.61,480a48.27,48.27,0,0,1-24.33-21.12l-1.48,4.18c4.46,1.62,10,4.78,14.71,5.2,2.91.26,4.23-1.82,4.54-4.48.58-5-.49-10.69-.95-15.71-.51-5.52-1.17-11-1.94-16.52L344.5,434C348.79,440,353,446,357.36,451.87c2.31,3.15,5.76,7.54,10.23,5.5,3.93-1.8,5.63-8,7.23-11.5l9.93-21.61-2.81.07c2.13,6.57,4.11,13.21,6.42,19.72,1.12,3.17,2.85,7.3,6.65,7.89,7.32,1.13,8-10.16,13.87-12l-2.05-1.68a50.78,50.78,0,0,1-.71,21.91c-.55,2.16,2.07,5.56,2.87,2.43a59.32,59.32,0,0,0,.95-25.74c-.18-1-.94-2-2-1.68-5.66,1.81-5.69,8.69-10.27,11.3-5.06,2.88-6.92-6.2-8-9.45l-5-15.23c-.57-1.74-2.2-1.27-2.82.07l-6.61,14.4c-2.09,4.55-3.78,10.4-6.75,14.41-4.75,6.41-10.33-4.26-12.85-7.76l-8.94-12.4c-1.61-2.23-2.86,1.07-2.66,2.48,1.09,7.85,1.93,15.72,2.45,23.63.08,1.17.91,4.88.32,5.63-1.32,1.67-4,.15-5.37-.36l-9.91-3.59c-2.25-.82-2.09,3.12-1.48,4.18a51.42,51.42,0,0,0,25.79,22.37c2.2.87,2.7-4,.75-4.81Z" transform="translate(-285.4 -71.46)"/><path class="cls-2" d="M353.62,538.62a23.49,23.49,0,0,0,1.32,13.08c.38.94,1.37,1.56,2.25.83s.9-2.42.51-3.41a16.29,16.29,0,0,1-.91-9.26c.48-2.62-2.58-4.47-3.17-1.24Z" transform="translate(-285.4 -71.46)"/><path class="cls-2" d="M366.68,583.22l14.19,13.57c1.89,1.81,3-2.92,1.54-4.32l-14.2-13.57c-1.88-1.8-3,2.93-1.53,4.32Z" transform="translate(-285.4 -71.46)"/><path class="cls-2" d="M409.31,630.07l6.91,9.75c1.73,2.44,3.42-1.86,2.21-3.57l-6.91-9.74c-1.73-2.45-3.42,1.86-2.21,3.56Z" transform="translate(-285.4 -71.46)"/><path class="cls-2" d="M483.48,681.69a14.83,14.83,0,0,0,7.38,4.33c2.36.57,2.75-4.32.75-4.81a12.77,12.77,0,0,1-6.59-3.85c-.82-.88-1.91.14-2.21.95a3.33,3.33,0,0,0,.67,3.38Z" transform="translate(-285.4 -71.46)"/><path class="cls-2" d="M518.46,680.73a20.65,20.65,0,0,1-4.61-19.34c.61-2.17-2-5.55-2.87-2.44a27.18,27.18,0,0,0,5.26,25.35c2,2.29,3.59-2,2.22-3.57Z" transform="translate(-285.4 -71.46)"/><path class="cls-2" d="M526.18,622.52v-6.95c0-1-.53-2.44-1.69-2.44s-1.56,1.62-1.56,2.52v7c0,.95.53,2.44,1.69,2.44s1.56-1.63,1.56-2.52Z" transform="translate(-285.4 -71.46)"/><path class="cls-2" d="M520.83,560.72a76.58,76.58,0,0,0-7.76-25.37c-1.47-2.89-3.81.5-2.75,2.57a72.92,72.92,0,0,1,7.41,24.19c.4,3.26,3.43,1.19,3.1-1.39Z" transform="translate(-285.4 -71.46)"/><path class="cls-2" d="M455.88,498.17A50.56,50.56,0,0,0,441.6,491c-2.3-.73-2.74,4.17-.75,4.8a47.93,47.93,0,0,1,13.49,6.7c2.19,1.57,3.2-3.13,1.54-4.32Z" transform="translate(-285.4 -71.46)"/><path class="cls-2" d="M378.46,490.65a34.91,34.91,0,0,0,3.07,16.52c1.34,3,3.7-.47,2.75-2.58a29,29,0,0,1-2.56-14c.18-3.07-3.08-2.92-3.26.08Z" transform="translate(-285.4 -71.46)"/><path class="cls-2" d="M411.82,539.26v16.67c0,3.05,3.25,3,3.25-.08V539.18c0-3-3.25-3-3.25.08Z" transform="translate(-285.4 -71.46)"/><path class="cls-2" d="M439.19,603.77l12.5,13.89c.82.92,1.88-.17,2.2-.94a3.3,3.3,0,0,0-.67-3.38l-12.49-13.89c-.82-.92-1.89.17-2.21.94a3.3,3.3,0,0,0,.67,3.38Z" transform="translate(-285.4 -71.46)"/><path class="cls-2" d="M498.41,630.85V612.79c0-3-3.26-3-3.26.08v18.06c0,3.05,3.26,3,3.26-.08Z" transform="translate(-285.4 -71.46)"/><path class="cls-2" d="M469.11,550.94a23.58,23.58,0,0,0-1.32-13.08c-.38-1-1.37-1.57-2.25-.84s-.9,2.41-.5,3.41a16.5,16.5,0,0,1,.9,9.27c-.48,2.61,2.58,4.47,3.17,1.24Z" transform="translate(-285.4 -71.46)"/><path class="cls-2" d="M482.84,490.08a16.1,16.1,0,0,0-10.7-7.38c-2.4-.44-2.75,4.44-.74,4.8a13.54,13.54,0,0,1,9.23,6.14,1.31,1.31,0,0,0,2.3-.06,3.39,3.39,0,0,0-.09-3.5Z" transform="translate(-285.4 -71.46)"/><path class="cls-2" d="M293.94,71.46H287c-2.18,0-2.09,5,.13,5h6.94c2.19,0,2.1-5-.12-5Z" transform="translate(-285.4 -71.46)"/><path class="cls-2" d="M388.5,562.6c5-.14,4.82-9.94-.11-10.1-2.17-.07-2.11,4.89.12,5,.27,0,0,.06.4.1-.16-.1-.16-.09,0,0-.16-.19-.16-.19,0,0-.12-.26-.13-.28,0-.05s.09.21,0-.09c.05.27.05.23,0-.13,0,.09,0,.18,0,.27s0,.12,0-.21c-.05.26,0,.24,0-.07a3,3,0,0,1-.11.32q.18-.37,0-.06c.43-.4-.43.23,0,0-.18.1,0,.07-.41.08-2.2.07-2.08,5,.12,5Z" transform="translate(-285.4 -71.46)"/><path class="cls-2" d="M470.93,520.32c-.68,2.58-.05,5.36,2.51,6.62a4.67,4.67,0,0,0,6.2-1.56c3.44-5.78-3.74-13.46-9.47-9.25a7.52,7.52,0,0,0-2.54,8.61c1,2.48,3.63,4.42,6.35,3.83,5.76-1.24,4.45-11.48-1.07-12.11-6.31-.72-7.74,9.38-3.37,12.45a6.51,6.51,0,0,0,7.79-.53c2.34-2,2.82-5.5,2.07-8.35-.6-2.28-2.89-6.36-5.75-5.06-2.47,1.12-3.34,4.39-3,6.85.36,2.65,2.23,5.11,5.14,4.85s5-2.87,5.32-5.57c1-7.53-9.77-10.2-11.63-2.48-.77,3.2.25,7.21,3.32,8.85s6.84.27,8.92-2.44c1.28-1.66-.55-5.84-2.39-3.45-1.39,1.82-6.87,2.77-6.85-.74a2.35,2.35,0,0,1,2.55-2.11c.64,0,2.81.48,2.9,1.32.12,1.22-2.54,2-3.38,1.55s-1-1.06-.25-1.65c1-.76,2,1.06,2.14,2,.25,1.57-1.08,2.57-2.47,2.89-1,.25-3.18.21-3.67-1-.37-1,.55-2,1.44-2.33s2.68.05,2.66,1.28-1.64,1-2.4.75c-1.66-.57-1.92-1.67-.57-2.81a3.64,3.64,0,0,1,4.48-.31c1,.69,1.92,1.86.19,2.1a2.8,2.8,0,0,1-1.51-.22c-1.26-.56-.41-1-.78.44.28-1,.33-2.66-.67-3.38a1.42,1.42,0,0,0-2.21.94Z" transform="translate(-285.4 -71.46)"/><path class="cls-2" d="M382.28,554.52c-2.75,5.33-1.17,13.36,5,15.62s12.68-3.16,13.05-9.4c.4-6.64-5.28-13.45-12.31-11.85-6.64,1.52-8.56,10.09-3.81,14.67a1.19,1.19,0,0,0,1.26.22c3.83-2.15,8.46-7.3,4.45-11.63s-8.9.45-9.11,4.89c-.52,10.76,15,12.71,17.94,2.84.3-1,.33-2.69-.66-3.38a8.48,8.48,0,0,0-9.88-.33,3,3,0,0,0-.88,3.67c1.74,3.93,5.71,1.74,6.3-1.72.31-1.85.33-3.9-1.42-4.94-1.6-.95-3.22-.42-4.57.65-1.59,1.27-.36,5.93,1.75,4.25l1.95-.16-.86-2.12a2.63,2.63,0,0,0-.4,1.47l-.89,3.66a6.23,6.23,0,0,1,7.36-.11l-.67-3.38c-1.06,3.56-5.7,4.88-8.94,3.59-2-.81-4.68-4.41-1.21-5.37.67-.18,2-.25,2.18.58s-2.87,2.47-3.42,2.78l1.26.22c-4-3.9,4-6.29,6.91-5.17,3.13,1.23,5.66,5.07,3.72,8.27a7.51,7.51,0,0,1-7.57,3.23c-3.25-.68-5.76-4.47-4.14-7.6.94-1.81-1-6.08-2.39-3.45Z" transform="translate(-285.4 -71.46)"/><path class="cls-2" d="M411.33,605c11.42-11.19,28.17-17.09,43.07-22.11a236.47,236.47,0,0,1,49.34-10.84c2.21-.25,2-5.2-.12-5a240.35,240.35,0,0,0-50.21,11c-15.22,5.14-32.15,11.18-43.83,22.63-1.45,1.42-.14,6.1,1.75,4.24Z" transform="translate(-285.4 -71.46)"/><path class="cls-3" d="M414.88,600a36.16,36.16,0,0,1,18.51,7.1c1.9,1.43,4.94,2.92,6.25.93a4.16,4.16,0,0,0,.38-2.57l-.83-13.09,8.75,6.24A6.31,6.31,0,0,0,451.1,600c3.15.17,4.5-4,4.19-7.17s-1.07-6.86,1.25-9a48.57,48.57,0,0,0,9.25,8.23c2,1.39,5.15,2.46,6.63.5a5.16,5.16,0,0,0,.69-3.06l.2-11.94c3.12-.41,5.36,2.79,7.05,5.44s4.75,5.47,7.56,4.06c4.27-2.13,2.54-11.46,7.29-11.11,2.84.21,4.72,4.59,7.36,3.52a9.38,9.38,0,0,0,1.07-6.93" transform="translate(-285.4 -71.46)"/><path class="cls-2" d="M414.94,602.46a36.84,36.84,0,0,1,13.87,4.29c2.56,1.42,6,5.13,9.33,4.65,2.27-.33,3.23-2.22,3.5-4.33.6-4.66-.53-10.08-.82-14.76l-2.4,2.2c3.36,2.4,10.69,10.3,15.39,7.17,1.67-1.1,2.45-3.24,2.85-5.11.67-3.12-1.35-8,.75-10.58l-1.64,0c3,3.35,10.2,11.79,15.74,9.83,2.21-.77,2.78-2.79,3.13-4.91.71-4.29.23-9.05.3-13.4l-1.57,2.52c5.94.16,6.5,9.6,12.79,9.82,4,.13,5.47-3.92,6.4-7.1.87-2.94,1.35-5.25,4.76-3.16,1.41.86,2.47,2.56,4.35,2.52,4.26-.1,4-7.46,3.53-10.27-.51-3.25-3.51-1.2-3.11,1.39l-1,3.76a13,13,0,0,1-1.78-1.35,15.83,15.83,0,0,0-1.74-1.31,4.84,4.84,0,0,0-3.44-.78c-2.3.49-3.24,2.88-3.9,4.86-.49,1.45-.63,3.1-1.37,4.45-2.05,3.73-5.54.82-7.38-1.65-2.26-3-4.08-6-8.22-6.14-1.19,0-1.55,1.66-1.57,2.52,0,2.88,1.31,14.7-4.42,12.71-3.7-1.28-7.45-5.86-9.95-8.64a1.17,1.17,0,0,0-1.64,0c-2.44,3-2.44,6-2.16,9.8a9,9,0,0,1,.11,3.18c-1.56,4.59-3.72,2.47-5.64,1.19-2.72-1.82-5.35-3.82-8-5.72-1.47-1.05-2.48.91-2.4,2.2.22,3.5,1.26,7.77.72,11.22l.11,1.87a2.49,2.49,0,0,1-3.34,0c-1.36-.51-2.62-1.79-3.85-2.55a39.25,39.25,0,0,0-16.38-5.41c-2.11-.23-2.11,4.72.12,5Z" transform="translate(-285.4 -71.46)"/><path class="cls-4" d="M417.24,602a72,72,0,0,0,54.11,33c3.14.26,6.41.3,9.32-.91,5.89-2.43,8.68-9,10.88-15Q499.29,598,507,577" transform="translate(-285.4 -71.46)"/><path class="cls-2" d="M416.14,603.75c12.09,18.88,32.79,31.93,55.27,33.73,11.65.94,17.18-5.77,21.09-15.9,5.56-14.36,10.66-28.91,16-43.37.79-2.15-1.75-5.48-2.87-2.43q-6.74,18.3-13.48,36.59c-1.84,5-3.38,10.59-6.59,15-3.89,5.28-9.69,5.69-15.74,5-21-2.22-40.13-14.52-51.45-32.19-1.6-2.51-3.33,1.82-2.21,3.56Z" transform="translate(-285.4 -71.46)"/><path class="cls-1" d="M462.2,609.78a56.15,56.15,0,0,1,36.66-9c12.53,1.33,24.21,6.84,36.52,9.56s26.7,2,35.45-7.07c5.16-5.36,7.57-12.85,12.47-18.44,11.31-12.89,34.56-10.66,44.79,3.11s7,34.95-5.47,46.7c-7.91,7.44-18.53,11.34-29.16,13.61a120.75,120.75,0,0,1-53.13-.66c-25-6-47.32-19.75-71-29.9-4.74-2-11.19-3.53-14.28.61" transform="translate(-285.4 -71.46)"/><path class="cls-2" d="M462.69,612.16a56.58,56.58,0,0,1,42.88-7.81c13.47,2.88,26.17,9.28,40.11,9.83,11.53.45,22.51-3.19,29.33-12.88,3.73-5.3,6.06-11.66,10.9-16.12a25.54,25.54,0,0,1,15.9-6.36c11.74-.68,23.53,5.33,28.33,16.35,5.07,11.63,1.91,26.06-6.45,35.36-9.79,10.89-25.41,15-39.39,16.81a120,120,0,0,1-47.07-3c-16.18-4.36-31.28-11.83-46.29-19.13-7.35-3.58-14.73-7.52-22.4-10.38-4.81-1.79-10.5-2.79-14.31,1.39-1.35,1.48,0,6.17,1.74,4.24,5.16-5.65,15,.49,20.42,3,7.35,3.39,14.6,7,21.89,10.52,14.53,7,29.42,13.61,45.28,16.9a122,122,0,0,0,48.15.3c12.89-2.54,26.37-7.29,35-17.77C640.75,616.14,639,586,616.76,576.5c-9.44-4-21.09-3.7-29.71,2.16-5.29,3.6-8.34,9-11.49,14.45-3.89,6.69-8.46,11.91-16,14.4-16.85,5.55-33.65-3-49.74-7.13-16.63-4.28-33.52-2.35-48.09,7-1.75,1.12-.93,6,1,4.76Z" transform="translate(-285.4 -71.46)"/><path class="cls-2" d="M477.14,610.74c27.19-1.22,49.46,17.2,75.38,22,18.71,3.48,41.16-2.37,48.32-21.89.8-2.15-1.75-5.48-2.87-2.43-8.07,22-35.65,22.88-54.48,17.08C521.35,618.69,501,604.71,477,605.79c-2.21.09-2.08,5.05.12,5Z" transform="translate(-285.4 -71.46)"/></svg>