<svg xmlns="http://www.w3.org/2000/svg" viewBox="0 0 480 480"><defs><style>.cls-1{fill:none;stroke:#111;stroke-miterlimit:10;stroke-width:40px;}.cls-2{fill:#111;}</style></defs><title>headhunter-logo</title><g id="Layer_6" data-name="Layer 6"><rect class="cls-1" x="20" y="20" width="440" height="440" rx="3" ry="3"/></g><g id="Layer_8" data-name="Layer 8"><path class="cls-2" d="M406.31,174h38.81v77.7c4.53-3.65,7-5.61,9.4-7.55,15.54-12.32,33-15,51.68-9.52,17.3,5,28.13,16.85,30.07,34.75,1.71,15.82,1.63,31.86,1.84,47.81.28,21.47.07,42.95.07,66-12.08,0-23.38.33-34.62-.37-1.65-.1-4.26-5.05-4.3-7.78-.36-22.5-.18-45-.23-67.5,0-6.84-.07-13.69-.41-20.53-.74-14.45-5.9-21.46-17.2-23.84-12.14-2.56-25.56,3-30.67,13.95a49,49,0,0,0-4.7,18.74c-.74,24.76-.67,49.54-.9,74.31,0,3.86,0,7.71,0,13-12.27,0-23.55.37-34.75-.42-1.57-.11-3.89-5.87-3.92-9-.27-36.84-.17-73.69-.17-110.53Z" transform="translate(-162.94 -41.28)"/><path class="cls-2" d="M259.42,170.12h38.82v77.7c4.53-3.64,6.95-5.61,9.4-7.55,15.54-12.32,33-15,51.68-9.52,17.3,5,28.13,16.85,30.07,34.75,1.71,15.82,1.63,31.86,1.84,47.81.27,21.47.06,42.95.06,66-12.07,0-23.37.33-34.61-.36-1.66-.11-4.26-5.05-4.31-7.79-.35-22.49-.17-45-.22-67.49,0-6.85-.07-13.7-.42-20.54-.73-14.44-5.89-21.45-17.2-23.84-12.13-2.56-25.55,3-30.67,13.95A49,49,0,0,0,299.17,292c-.74,24.76-.68,49.54-.9,74.32,0,3.85,0,7.7,0,13-12.27,0-23.55.37-34.75-.42-1.57-.11-3.89-5.87-3.92-9-.27-36.84-.18-73.68-.18-110.53Z" transform="translate(-162.94 -41.28)"/></g></svg>